<svg xmlns="http://www.w3.org/2000/svg" width="57" height="56" viewBox="0 0 57 56" fill="none">
<path d="M5.20361 28.8132H18.7308C22.2992 28.8132 24.7481 31.5187 24.7481 34.8305V42.3405C24.7481 45.6524 22.2992 48.3577 18.7308 48.3577H11.2209C7.90909 48.3577 5.20361 45.6524 5.20361 42.3405V28.8132" stroke="#ee9143" stroke-width="3.49841" stroke-linecap="round" stroke-linejoin="round" fill="#ffffff"/>
<path d="M5.20361 28.8124C5.20361 14.7022 7.83915 12.37 15.7689 7.65881" stroke="#ee9143" stroke-width="3.49841" stroke-linecap="round" stroke-linejoin="round" fill="#ffffff"/>
<path d="M32.3315 28.8132H45.8587C49.4271 28.8132 51.876 31.5187 51.876 34.8305V42.3405C51.876 45.6524 49.4271 48.3577 45.8587 48.3577H38.3489C35.037 48.3577 32.3315 45.6524 32.3315 42.3405V28.8132" stroke="#ee9143" stroke-width="3.49841" stroke-linecap="round" stroke-linejoin="round" fill="#ffffff"/>
<path d="M32.3315 28.8124C32.3315 14.7022 34.9669 12.37 42.8967 7.65881" stroke="#ee9143" stroke-width="3.49841" stroke-linecap="round" stroke-linejoin="round" fill="#ffffff"/>
</svg>