<svg width="179" height="147" viewBox="0 0 179 147" fill="none" xmlns="http://www.w3.org/2000/svg">
<path d="M0.901367 16.6122C0.901367 7.84159 8.01152 0.731445 16.7822 0.731445H118.419C127.19 0.731445 134.3 7.84159 134.3 16.6122V29.3169C134.3 31.0711 132.878 32.493 131.124 32.493C129.37 32.493 127.948 31.0711 127.948 29.3169V16.6122C127.948 11.3498 123.682 7.08376 118.419 7.08376H16.7822C11.5197 7.08376 7.25369 11.3498 7.25369 16.6122V103.984C7.25369 109.247 11.5197 113.513 16.7822 113.513H19.5939C24.8563 113.513 29.1223 117.779 29.1223 123.041V140.03L49.6992 116.733C51.5081 114.685 54.1087 113.513 56.8408 113.513H118.419C123.682 113.513 127.948 109.247 127.948 103.984V86.4877C127.948 84.7335 129.37 83.3116 131.124 83.3116C132.878 83.3116 134.3 84.7335 134.3 86.4877V103.984C134.3 112.755 127.19 119.865 118.419 119.865H56.8408C55.9301 119.865 55.0631 120.256 54.4603 120.938L33.8834 144.235C30.0099 148.62 22.77 145.88 22.77 140.03V123.041C22.77 121.287 21.3481 119.865 19.5939 119.865H16.7822C8.01136 119.865 0.901367 112.755 0.901367 103.984V16.6122Z" fill="black"/>
<path d="M31.8682 37.2572C31.8682 35.503 33.2901 34.0811 35.0443 34.0811H100.156C101.91 34.0811 103.332 35.503 103.332 37.2572C103.332 39.0114 101.91 40.4334 100.156 40.4334H35.0443C33.2901 40.4334 31.8682 39.0114 31.8682 37.2572Z" fill="black"/>
<path d="M31.8682 52.3441C31.8682 50.5899 33.2901 49.168 35.0443 49.168H100.156C101.91 49.168 103.332 50.5899 103.332 52.3441C103.332 54.0983 101.91 55.5203 100.156 55.5203H35.0443C33.2901 55.5203 31.8682 54.0983 31.8682 52.3441Z" fill="#EE9143"/>
<path d="M31.8682 67.431C31.8682 65.6768 33.2901 64.2549 35.0443 64.2549H71.5702C73.3243 64.2549 74.7463 65.6768 74.7463 67.431C74.7463 69.1852 73.3243 70.6072 71.5702 70.6072H35.0443C33.2901 70.6072 31.8682 69.1852 31.8682 67.431Z" fill="black"/>
<path fill-rule="evenodd" clip-rule="evenodd" d="M162.732 10.0784C161.5 8.83013 159.489 8.81743 158.241 10.0498L93.7084 73.7664C93.4313 74.04 93.2069 74.3622 93.0463 74.717L81.1781 100.941C80.6361 102.139 80.888 103.547 81.8116 104.482C82.7354 105.418 84.1399 105.688 85.3444 105.161L111.718 93.6274C112.074 93.4713 112.399 93.251 112.677 92.9774L177.209 29.2609C178.457 28.0284 178.47 26.0174 177.238 24.7692L162.732 10.0784ZM154.112 23.053L160.444 16.8017L170.485 26.9722L163.877 33.4976L154.112 23.053ZM149.591 27.5179L159.354 37.9625L108.633 88.0432L90.3742 96.0281L98.5906 77.8727L149.591 27.5179Z" fill="#EE9143"/>
</svg>
