<svg width="170" height="147" viewBox="0 0 170 147" fill="none" xmlns="http://www.w3.org/2000/svg">
<path d="M166.237 130.684C166.212 130.684 163.711 130.46 156.769 122.275C163.406 113.553 167.575 103.207 168.84 92.3204C170.104 81.4337 168.417 70.4074 163.956 60.3965C159.495 50.3856 152.424 41.7586 143.484 35.4195C134.543 29.0803 124.062 25.2622 113.139 24.3652C76.3357 20.8174 43.7319 53.3451 47.2046 90.1568C50.4457 137.151 106.347 162.858 144.079 134.675C151.277 137.83 159.317 138.515 166.946 136.624C167.641 136.447 168.247 136.024 168.654 135.434C169.06 134.844 169.238 134.126 169.156 133.414C169.071 132.687 168.731 132.014 168.197 131.514C167.662 131.014 166.968 130.72 166.237 130.684ZM145.326 128.592C144.802 128.269 144.191 128.115 143.577 128.148C142.962 128.182 142.373 128.402 141.887 128.78C131.349 136.956 118.208 141.04 104.893 140.275C57.7422 137.68 35.7065 79.4268 69.219 46.2908C102.057 13.1877 159.525 34.5546 163.053 80.96C164.123 94.6628 160.037 108.271 151.596 119.118C150.863 120.042 150.472 121.191 150.487 122.37C150.503 123.549 150.925 124.687 151.682 125.591C153.416 127.695 155.266 129.7 157.222 131.599C153.084 131.482 149.023 130.455 145.326 128.592Z" fill="black"/>
<path d="M46.8913 115.136C39.9824 113.218 33.5194 109.957 27.8721 105.539C27.4268 105.193 26.8932 104.978 26.332 104.92C25.7708 104.861 25.2045 104.962 24.6976 105.21C20.9346 107.171 16.7753 108.253 12.5335 108.372C14.9083 105.663 21.9774 100.644 18.1793 95.8479C9.94442 85.2751 5.8478 72.0621 6.65722 58.6852C7.46665 45.3083 13.1265 32.6857 22.5762 23.183C32.0258 13.6803 44.6166 7.94987 57.9887 7.06559C71.3609 6.18131 84.5966 10.2039 95.2153 18.3795C95.8485 18.8484 96.6401 19.0506 97.4206 18.9428C98.201 18.835 98.9083 18.4258 99.3907 17.8029C99.8731 17.18 100.092 16.3929 100.001 15.6103C99.9106 14.8277 99.5168 14.1118 98.9045 13.616C41.5356 -28.5684 -28.803 41.49 13.0149 99.0168C6.06526 107.213 3.56153 107.463 3.54533 107.463C2.81499 107.477 2.11424 107.754 1.57298 108.245C1.03171 108.735 0.686638 109.405 0.60172 110.131C0.516801 110.856 0.697796 111.588 1.11116 112.19C1.52452 112.793 2.14221 113.225 2.84973 113.406C10.4719 115.258 18.4903 114.566 25.6832 111.438C31.5871 115.765 38.2263 118.985 45.279 120.944C46.0492 121.158 46.8727 121.057 47.5685 120.663C48.2642 120.27 48.7752 119.616 48.989 118.846C49.2028 118.076 49.1019 117.252 48.7085 116.557C48.3151 115.861 47.6614 115.35 46.8913 115.136Z" fill="#EE9143"/>
<path d="M108.131 76.4541C105.808 76.4799 103.589 77.4209 101.955 79.0728C100.321 80.7247 99.4052 82.9543 99.4053 85.2775C99.4053 87.6008 100.322 89.8304 101.955 91.4823C103.589 93.1341 105.808 94.0751 108.131 94.1008C110.455 94.075 112.674 93.1341 114.307 91.4821C115.941 89.8302 116.857 87.6007 116.857 85.2774C116.857 82.9541 115.941 80.7245 114.307 79.0727C112.674 77.4208 110.454 76.4798 108.131 76.4541ZM108.131 88.0754C107.399 88.0609 106.701 87.7598 106.188 87.2366C105.675 86.7135 105.388 86.01 105.388 85.2774C105.388 84.5447 105.675 83.8413 106.188 83.3182C106.701 82.795 107.399 82.4939 108.131 82.4795C108.864 82.494 109.562 82.7951 110.074 83.3183C110.587 83.8415 110.875 84.5449 110.875 85.2775C110.875 86.0102 110.587 86.7136 110.074 87.2368C109.561 87.7599 108.864 88.061 108.131 88.0754Z" fill="black"/>
<path d="M137.181 76.4541C134.859 76.4806 132.64 77.4219 131.007 79.0737C129.374 80.7256 128.458 82.9547 128.458 85.2775C128.458 87.6004 129.374 89.8295 131.007 91.4813C132.64 93.1331 134.859 94.0744 137.181 94.1008C139.504 94.0743 141.723 93.133 143.356 91.4812C144.989 89.8294 145.905 87.6002 145.905 85.2774C145.905 82.9545 144.989 80.7254 143.356 79.0736C141.723 77.4218 139.504 76.4805 137.181 76.4541ZM137.181 88.0754C136.449 88.0605 135.752 87.7592 135.239 87.2361C134.727 86.713 134.439 86.0098 134.439 85.2774C134.44 84.545 134.727 83.8418 135.239 83.3187C135.752 82.7956 136.449 82.4943 137.181 82.4795C137.914 82.4944 138.611 82.7957 139.124 83.3188C139.636 83.8419 139.923 84.5451 139.923 85.2775C139.923 86.01 139.636 86.7132 139.123 87.2362C138.611 87.7593 137.914 88.0606 137.181 88.0754Z" fill="black"/>
<path d="M79.0758 76.4541C76.7531 76.4806 74.5346 77.4219 72.9015 79.0737C71.2684 80.7256 70.3525 82.9547 70.3525 85.2775C70.3526 87.6004 71.2685 89.8295 72.9016 91.4813C74.5347 93.1331 76.7533 94.0744 79.076 94.1008C81.3987 94.0743 83.6172 93.133 85.2503 91.4812C86.8834 89.8294 87.7993 87.6002 87.7993 85.2774C87.7993 82.9545 86.8833 80.7254 85.2502 79.0736C83.6171 77.4218 81.3985 76.4805 79.0758 76.4541ZM79.0758 88.0754C78.3436 88.0605 77.6463 87.7592 77.1337 87.2361C76.6211 86.713 76.334 86.0098 76.334 85.2774C76.3341 84.545 76.6212 83.8418 77.1338 83.3187C77.6465 82.7956 78.3437 82.4943 79.076 82.4795C79.8082 82.4944 80.5055 82.7957 81.0181 83.3188C81.5307 83.8419 81.8178 84.5451 81.8178 85.2775C81.8178 86.01 81.5306 86.7132 81.018 87.2362C80.5053 87.7593 79.8081 88.0606 79.0758 88.0754Z" fill="black"/>
</svg>
