<svg width="154" height="153" viewBox="0 0 154 153" fill="none" xmlns="http://www.w3.org/2000/svg">
<circle cx="77.0596" cy="76.5713" r="76.3301" fill="#252525"/>
<path d="M77.0599 108.78C94.8477 108.78 109.268 94.3602 109.268 76.5723C109.268 58.7844 94.8477 44.3645 77.0599 44.3645C59.272 44.3645 44.8521 58.7844 44.8521 76.5723C44.8521 94.3602 59.272 108.78 77.0599 108.78Z" stroke="white" stroke-width="2.92798" stroke-miterlimit="10" stroke-linecap="round" stroke-linejoin="round"/>
<path d="M77.0597 99.0202C89.4573 99.0202 99.5075 88.97 99.5075 76.5723C99.5075 64.1747 89.4573 54.1245 77.0597 54.1245C64.6621 54.1245 54.6118 64.1747 54.6118 76.5723C54.6118 88.97 64.6621 99.0202 77.0597 99.0202Z" stroke="white" stroke-width="2.92798" stroke-miterlimit="10" stroke-linecap="round" stroke-linejoin="round"/>
<path d="M83.3057 83.6C82.7202 84.3808 82.1346 84.9663 81.1586 85.3567C80.1826 85.7471 79.2066 86.1375 77.8402 86.1375V88.0895C77.8402 88.2847 77.8402 88.4799 77.645 88.6751C77.4498 88.8703 77.2546 88.8703 77.0594 88.8703C76.8642 88.8703 76.669 88.8703 76.4738 88.6751C76.2786 88.4799 76.2786 88.2847 76.2786 88.0895V86.1375C74.3266 85.9423 72.5698 85.5519 70.813 84.7711C70.6178 84.7711 70.4226 84.5759 70.2274 84.3807C70.0322 84.1856 70.0322 83.9904 70.0322 83.7952C70.0322 83.4048 70.2274 83.2096 70.4226 83.0144C70.6178 82.8192 70.813 82.624 71.2034 82.624C71.3986 82.624 71.5938 82.624 71.789 82.8192C73.1554 83.4048 74.717 83.7952 76.4738 83.9904V77.744C75.3026 77.3536 74.1314 77.1584 73.3506 76.768C72.5698 76.3776 71.789 75.792 71.2034 75.2064C70.6178 74.4256 70.4226 73.6448 70.4226 72.4736C70.4226 71.4976 70.6178 70.7168 71.2034 69.936C71.5938 69.1552 72.3746 68.5696 73.3506 67.984C74.3266 67.3984 75.3026 67.2033 76.669 67.0081V65.0561C76.669 64.8609 76.669 64.6657 76.8642 64.4705C77.0594 64.2753 77.2546 64.2753 77.4498 64.2753C77.645 64.2753 77.8402 64.2753 78.0354 64.4705C78.2306 64.6657 78.2306 64.8609 78.2306 65.0561V67.0081C79.9874 67.0081 81.549 67.3984 82.9154 67.984C83.5009 68.1792 83.6961 68.5696 83.6961 69.1552C83.6961 69.3504 83.5009 69.7408 83.3057 69.936C83.1106 70.1312 82.9153 70.3264 82.525 70.3264C82.3298 70.3264 82.3298 70.3264 82.1346 70.1312C80.9634 69.7408 79.597 69.5456 78.2306 69.3504V75.792C79.597 76.1824 80.573 76.3776 81.549 76.768C82.3298 77.1584 83.1105 77.744 83.6961 78.3296C84.2817 79.1104 84.4769 79.8912 84.4769 81.0624C84.0865 82.0384 83.8913 82.8192 83.3057 83.6ZM73.5458 74.0352C74.1314 74.4256 75.1074 74.816 76.2786 75.2064V69.3504C75.1074 69.5456 74.3266 69.7408 73.741 70.3264C73.1554 70.912 72.765 71.4976 72.765 72.2784C72.5698 73.0592 72.9602 73.6448 73.5458 74.0352ZM81.7442 80.8672C81.7442 80.0864 81.3538 79.696 80.7682 79.3056C80.1826 78.9152 79.2066 78.5248 77.8402 78.1344V83.9904C80.3778 83.7952 81.7442 82.8192 81.7442 80.8672Z" fill="white"/>
<path d="M52.0742 38.5076C59.1014 33.8229 67.6901 31.2853 76.6693 31.2853C85.8436 31.2853 94.2372 34.0181 101.264 38.5076" stroke="white" stroke-width="2.92798" stroke-miterlimit="10" stroke-linecap="round" stroke-linejoin="round"/>
<path d="M100.484 31.4806L102.045 39.2885L94.2373 40.8501" stroke="white" stroke-width="2.92798" stroke-miterlimit="10" stroke-linecap="round" stroke-linejoin="round"/>
<path d="M102.045 114.635C95.0179 119.32 86.4292 121.857 77.45 121.857C68.2757 121.857 59.8821 119.124 52.855 114.635" stroke="white" stroke-width="2.92798" stroke-miterlimit="10" stroke-linecap="round" stroke-linejoin="round"/>
<path d="M53.6358 121.662L52.0742 113.854L59.8822 112.292" stroke="white" stroke-width="2.92798" stroke-miterlimit="10" stroke-linecap="round" stroke-linejoin="round"/>
<path d="M115.124 51.5859C119.808 58.6131 122.346 67.2018 122.346 76.181C122.346 85.3553 119.613 93.7489 115.124 100.776" stroke="white" stroke-width="2.92798" stroke-miterlimit="10" stroke-linecap="round" stroke-linejoin="round"/>
<path d="M122.346 99.9951L114.343 101.557L112.781 93.7488" stroke="white" stroke-width="2.92798" stroke-miterlimit="10" stroke-linecap="round" stroke-linejoin="round"/>
<path d="M38.9958 101.557C34.311 94.5296 31.7734 85.9408 31.7734 76.9617C31.7734 67.7873 34.5062 59.3938 38.9958 52.3666" stroke="white" stroke-width="2.92798" stroke-miterlimit="10" stroke-linecap="round" stroke-linejoin="round"/>
<path d="M31.7734 53.1475L39.7766 51.5859L41.3382 59.3939" stroke="white" stroke-width="2.92798" stroke-miterlimit="10" stroke-linecap="round" stroke-linejoin="round"/>
</svg>
