<svg width="153" height="153" viewBox="0 0 153 153" fill="none" xmlns="http://www.w3.org/2000/svg">
<circle cx="76.3975" cy="76.5713" r="76.3301" fill="#252525"/>
<path d="M111.447 41.5218C103.836 33.9105 93.716 29.7188 82.9519 29.7188C72.1878 29.7188 62.0681 33.9105 54.4571 41.5218C53.901 42.0778 53.3553 42.656 52.835 43.2401C52.3299 43.8073 52.38 44.6768 52.9474 45.1819C53.5147 45.6872 54.3842 45.6367 54.8892 45.0696C55.3743 44.5247 55.8835 43.9856 56.4021 43.4667C63.4938 36.375 72.9228 32.4693 82.9521 32.4693C92.9813 32.4693 102.41 36.3749 109.502 43.4667C124.141 58.1063 124.141 81.9268 109.502 96.5664C102.41 103.658 92.9811 107.564 82.9521 107.564C72.9228 107.564 63.4938 103.658 56.4021 96.5664C50.2362 90.4004 46.3899 82.2322 45.572 73.5666C44.7645 65.0128 46.9221 56.3847 51.647 49.2714C52.0672 48.6387 51.895 47.785 51.2623 47.3648C50.6298 46.9446 49.7761 47.1168 49.3557 47.7495C44.2834 55.3856 41.967 64.6462 42.8335 73.8252C43.5037 80.9262 46.0702 87.7145 50.1904 93.474L46.1516 97.5128C45.6145 96.9763 44.744 96.9763 44.2072 97.5133L31.8718 109.849C28.7706 112.95 28.7706 117.996 31.8718 121.097C33.4221 122.648 35.4589 123.423 37.4957 123.423C39.5325 123.423 41.5693 122.648 43.1198 121.097L46.606 117.611C47.1432 117.074 47.1432 116.203 46.606 115.666C46.0689 115.129 45.1981 115.129 44.6609 115.666L41.1747 119.152C40.1919 120.135 38.8853 120.676 37.4955 120.676C36.1057 120.676 34.7991 120.135 33.8163 119.152C32.8335 118.169 32.2924 116.863 32.2924 115.473C32.2924 114.083 32.8335 112.776 33.8163 111.794L45.1792 100.431L52.5374 107.789L48.5508 111.776C48.0136 112.313 48.0136 113.183 48.5508 113.721C49.0879 114.258 49.9587 114.258 50.4959 113.721L55.4549 108.762C55.9918 108.225 55.992 107.354 55.4554 106.817L59.4863 102.786C66.2832 107.675 74.4138 110.315 82.9515 110.315C93.7156 110.315 103.835 106.123 111.447 98.5117C119.058 90.9004 123.25 80.7805 123.25 70.0166C123.25 59.2527 119.058 49.1331 111.447 41.5218ZM53.5107 104.872L48.0963 99.4577L51.8807 95.6733C52.692 96.6564 53.5502 97.6048 54.4569 98.5115C55.3666 99.4212 56.3132 100.281 57.2914 101.091L53.5107 104.872Z" fill="white"/>
<path d="M97.0221 99.3372C100.326 97.7516 103.328 95.6218 105.943 93.0071C118.619 80.3303 118.619 59.7038 105.943 47.0271C93.2655 34.3503 72.6393 34.3505 59.9625 47.0271C47.2859 59.7038 47.2859 80.3303 59.9625 93.0071C66.1351 99.1796 74.4687 102.526 82.9909 102.526C85.8781 102.526 88.7879 102.142 91.6413 101.353C92.3733 101.151 92.8029 100.393 92.6007 99.661C92.3981 98.9287 91.6405 98.4994 90.9087 98.7016C80.5844 101.554 69.4724 98.6269 61.9076 91.062C50.3033 79.4577 50.3033 60.5763 61.9076 48.9722C73.5117 37.3682 92.3927 37.3679 103.997 48.9722C115.602 60.5765 115.602 79.4578 103.998 91.062C101.603 93.4565 98.8556 95.4064 95.8322 96.8573C95.1473 97.186 94.8587 98.0074 95.1872 98.6923C95.5159 99.3773 96.3375 99.6654 97.0221 99.3372Z" fill="white"/>
<path d="M84.6079 63.7496C85.3676 63.7496 85.9832 63.1338 85.9832 62.3742C85.9832 61.6147 85.3676 60.9989 84.6079 60.9989H78.1674C77.4077 60.9989 76.792 61.6147 76.792 62.3742V77.6593C76.792 78.4189 77.4077 79.0347 78.1674 79.0347H84.6079C85.3676 79.0347 85.9832 78.4189 85.9832 77.6593C85.9832 76.8998 85.3676 76.284 84.6079 76.284H79.5427V71.3922H84.1329C84.8926 71.3922 85.5083 70.7763 85.5083 70.0168C85.5083 69.2573 84.8926 68.6414 84.1329 68.6414H79.5427V63.7496H84.6079Z" fill="white"/>
<path d="M68.3062 76.3542C66.6195 76.3542 64.991 75.6683 63.9497 74.5193C63.4396 73.9565 62.5699 73.9137 62.007 74.4239C61.444 74.934 61.4014 75.8037 61.9116 76.3667C63.4656 78.0813 65.8562 79.1049 68.3064 79.1049C71.2408 79.1049 73.7976 77.1803 74.2533 74.628C74.7789 71.6836 72.4638 69.7117 70.1219 68.8478C68.1367 68.1156 66.2954 67.3162 65.8307 67.1119C65.3379 66.7508 65.0987 66.1738 65.1881 65.5497C65.3011 64.7642 65.9047 64.1335 66.8029 63.863C69.2796 63.1176 71.5159 64.9121 71.5584 64.9467C72.1396 65.4307 73.0037 65.3544 73.4912 64.7746C73.9799 64.1932 73.9048 63.3257 73.3234 62.8368C73.1872 62.7223 69.9407 60.0455 66.0097 61.2292C64.0884 61.8079 62.7302 63.3136 62.4654 65.1589C62.2189 66.8769 62.9629 68.5292 64.407 69.4708C64.4678 69.5103 64.5317 69.5451 64.5979 69.5748C64.6865 69.6143 66.7945 70.5526 69.17 71.4289C70.8755 72.0579 71.7412 73.0478 71.5454 74.1448C71.3538 75.2159 70.1536 76.3542 68.3062 76.3542Z" fill="white"/>
<path d="M105.516 70.017C105.516 65.0057 101.439 60.9286 96.4271 60.9286C91.4157 60.9286 87.3389 65.0057 87.3389 70.017C87.3389 75.0284 91.4157 79.1052 96.4271 79.1052C101.439 79.1054 105.516 75.0284 105.516 70.017ZM90.0898 70.017C90.0898 66.5225 92.9327 63.6794 96.4272 63.6794C99.9219 63.6794 102.765 66.5223 102.765 70.017C102.765 73.5117 99.9219 76.3547 96.4272 76.3547C92.9327 76.3547 90.0898 73.5117 90.0898 70.017Z" fill="white"/>
</svg>
