<svg width="43" height="42" viewBox="0 0 43 42" fill="none" xmlns="http://www.w3.org/2000/svg">
<path d="M39.4455 14.4829V6.66227H31.6248V9.26914H18.5905V5.35883C18.5898 4.66765 18.3149 4.00499 17.8262 3.51625C17.3374 3.02752 16.6748 2.75264 15.9836 2.75195H5.55609C4.86492 2.75264 4.20225 3.02752 3.71352 3.51625C3.22478 4.00499 2.94991 4.66765 2.94922 5.35883V15.7863C2.94991 16.4775 3.22478 17.1402 3.71352 17.6289C4.20225 18.1176 4.86492 18.3925 5.55609 18.3932H15.9836C16.6748 18.3925 17.3374 18.1176 17.8262 17.6289C18.3149 17.1402 18.5898 16.4775 18.5905 15.7863V11.876C19.6272 11.877 20.6212 12.2894 21.3543 13.0225C22.0874 13.7556 22.4997 14.7496 22.5008 15.7863V27.5173H14.6802V24.9104H6.85953V32.731H14.6802V30.1241H22.5008V32.731C22.5015 33.4222 22.7763 34.0849 23.2651 34.5736C23.7538 35.0623 24.4165 35.3372 25.1077 35.3379H31.6248V37.9448H39.4455V30.1241H31.6248V32.731H25.1077V23.607H31.6248V26.2138H39.4455V18.3932H31.6248V21.0001H25.1077V15.7863C25.1029 14.3717 24.6334 12.9978 23.7716 11.876H31.6248V14.4829H39.4455ZM5.55609 15.7863V5.35883H15.9836V15.7863H5.55609ZM12.0733 30.1241H9.46641V27.5173H12.0733V30.1241ZM34.2317 32.731H36.8386V35.3379H34.2317V32.731ZM34.2317 21.0001H36.8386V23.607H34.2317V21.0001ZM34.2317 9.26914H36.8386V11.876H34.2317V9.26914Z" fill="#fff"/>
</svg>
