<svg width="43" height="42" viewBox="0 0 43 42" fill="none" xmlns="http://www.w3.org/2000/svg">
<path d="M38.1423 5.3588H35.5354V3.27395C35.5354 2.26965 34.7807 1.44849 33.8605 1.44849H25.4768C24.5592 1.44849 23.8045 2.26965 23.8045 3.27395V5.3588H8.12479L4.25293 13.1794H6.94127V18.3932H6.50592L4.33439 21L6.50592 23.6069H6.98168V25.0068C6.98168 25.3607 7.25475 25.6468 7.59299 25.6468C8.6038 25.6468 9.42627 26.5097 9.42627 27.57C9.42627 28.6304 8.6038 29.4932 7.59299 29.4932C6.58217 29.4932 5.7597 28.6304 5.7597 27.57C5.7597 27.2161 5.48598 26.93 5.14839 26.93C4.81015 26.93 4.53708 27.2161 4.53708 27.57C4.53838 29.3388 5.9083 30.7758 7.59299 30.7758C9.27703 30.7758 10.6482 29.3388 10.6482 27.5707C10.6482 26.0228 9.59702 24.7272 8.2043 24.4307V23.6069H8.6794L10.8516 21L8.6794 18.3932H8.24471V13.1794H23.8045V17.8711C23.8045 18.7366 24.3656 19.462 25.1079 19.6484V40.5516H26.8187V36.6413L32.5212 38.5965L26.8187 40.5516H34.232V19.6477C34.975 19.462 35.5354 18.7366 35.5354 17.8711V13.1794H38.1423V11.2243H36.788L38.1423 8.65324V5.3588ZM7.27886 11.2243L8.80127 8.09667L10.4475 11.2243H7.27886ZM10.1608 7.31395H12.8673L11.5144 9.88499L10.1608 7.31395ZM12.5812 11.2243L13.9349 8.65324L15.2891 11.2243H12.5812ZM15.0024 7.31395H17.709L16.3553 9.88499L15.0024 7.31395ZM17.4235 11.2243L18.7765 8.65324L20.1294 11.2243H17.4235ZM19.844 7.31395H22.5506L21.1976 9.88499L19.844 7.31395ZM23.8045 11.2243H22.2645L23.6174 8.65324L23.8045 9.00842V11.2243ZM32.5212 36.6413L26.8187 34.6861L32.5212 32.731V36.6413ZM26.8187 32.731V28.8207L32.5212 30.7771L26.8187 32.731ZM32.5212 28.8207L26.8187 26.8655L32.5212 24.9104V28.8207ZM26.8187 24.9104V21.0014L32.5212 22.9552L26.8187 24.9104ZM32.5212 21.0014L28.7185 19.6966H32.5212V21.0014ZM33.4988 10.0825C33.4988 10.7101 33.0582 11.2243 32.5212 11.2243H26.6545C26.1174 11.2243 25.6782 10.7101 25.6782 10.0825V4.54936C25.6782 3.91785 26.1174 3.40364 26.6545 3.40364H32.5212C33.0582 3.40364 33.4988 3.91785 33.4988 4.54936V10.0825ZM35.7212 9.88499L35.5354 9.53175V7.31395H37.0741L35.7212 9.88499Z" fill="#EE9143"/>
</svg>
