<svg width="42" height="42" viewBox="0 0 42 42" fill="none" xmlns="http://www.w3.org/2000/svg">
<path d="M37.5714 4.28352C37.0885 3.79877 36.5146 3.41414 35.8828 3.1517C35.2509 2.88925 34.5734 2.75415 33.8892 2.75415C33.2049 2.75415 32.5275 2.88925 31.8956 3.1517C31.2637 3.41414 30.6898 3.79877 30.207 4.28352L30.1581 4.3324L21.2132 14.3037L19.7143 12.8047C19.3521 12.4382 18.9208 12.1473 18.4453 11.9487C17.9699 11.7501 17.4597 11.6478 16.9445 11.6478C16.4292 11.6478 15.9191 11.7501 15.4436 11.9487C14.9682 12.1473 14.5369 12.4382 14.1747 12.8047L1.67797 25.2852C1.43321 25.5323 1.2959 25.866 1.2959 26.2139C1.2959 26.5617 1.43321 26.8954 1.67797 27.1426L14.7123 40.1769C14.9615 40.4178 15.2945 40.5525 15.641 40.5525C15.9876 40.5525 16.3206 40.4178 16.5697 40.1769L29.0502 27.6802C29.4167 27.318 29.7076 26.8867 29.9062 26.4113C30.1048 25.9358 30.2071 25.4257 30.2071 24.9104C30.2071 24.3951 30.1048 23.885 29.9062 23.4096C29.7076 22.9341 29.4167 22.5028 29.0502 22.1406L27.5512 20.6417L37.5225 11.6968L37.5714 11.6479C38.0561 11.1651 38.4408 10.5912 38.7032 9.95932C38.9656 9.32744 39.1007 8.64995 39.1007 7.96573C39.1007 7.28151 38.9656 6.60402 38.7032 5.97214C38.4408 5.34025 38.0561 4.7664 37.5714 4.28352ZM15.641 37.4071L13.3437 35.1098L17.4984 30.9388C17.7231 30.6909 17.8438 30.366 17.8356 30.0315C17.8273 29.6971 17.6908 29.3785 17.4542 29.1419C17.2176 28.9054 16.8991 28.7688 16.5646 28.7606C16.2301 28.7523 15.9053 28.873 15.6573 29.0977L11.5026 33.2687L8.7817 30.5478L12.9364 26.3768C13.1611 26.1288 13.2818 25.804 13.2735 25.4695C13.2653 25.135 13.1288 24.8165 12.8922 24.5799C12.6556 24.3433 12.3371 24.2068 12.0026 24.1985C11.6681 24.1903 11.3433 24.311 11.0953 24.5357L6.9406 28.7067L4.44777 26.2139L11.7307 18.9309L22.924 30.1242L15.641 37.4071ZM35.7629 9.79054L25.8241 18.7028C25.5595 18.9403 25.3453 19.2285 25.1942 19.5504C25.043 19.8722 24.9581 20.2212 24.9443 20.5765C24.9362 20.9295 24.9999 21.2805 25.1315 21.6082C25.2632 21.9359 25.46 22.2335 25.7101 22.4828L27.209 23.9817C27.3322 24.103 27.43 24.2476 27.4968 24.407C27.5635 24.5664 27.5979 24.7376 27.5979 24.9104C27.5979 25.0833 27.5635 25.2544 27.4968 25.4138C27.43 25.5733 27.3322 25.7178 27.209 25.8391L24.7651 28.2831L13.5718 17.0898L16.0158 14.6458C16.1371 14.5227 16.2816 14.4249 16.4411 14.3581C16.6005 14.2914 16.7716 14.257 16.9445 14.257C17.1173 14.257 17.2885 14.2914 17.4479 14.3581C17.6073 14.4249 17.7519 14.5227 17.8732 14.6458L19.3721 16.1448C19.6214 16.3949 19.919 16.5917 20.2467 16.7234C20.5743 16.855 20.9254 16.9187 21.2784 16.9106C21.6337 16.8968 21.9826 16.8119 22.3045 16.6607C22.6264 16.5096 22.9146 16.2954 23.1521 16.0307L32.0644 6.09204C32.5662 5.66274 33.2115 5.43855 33.8715 5.46423C34.5314 5.48991 35.1573 5.76356 35.6243 6.23056C36.0913 6.69755 36.365 7.3235 36.3907 7.98343C36.4163 8.64335 36.1922 9.28868 35.7629 9.79054Z" fill="#fff"/>
</svg>
