<svg width="42" height="42" viewBox="0 0 42 42" fill="none" xmlns="http://www.w3.org/2000/svg">
    <path
        d="M37.7998 32.8106H35.193V30.2037H36.4964V24.9899H31.2827V26.2934H28.6758V23.6865C28.6758 23.3408 28.8131 23.0093 29.0575 22.7648C29.302 22.5204 29.6335 22.3831 29.9792 22.3831H37.7998C38.1455 22.3831 38.4771 22.5204 38.7215 22.7648C38.966 23.0093 39.1033 23.3408 39.1033 23.6865V31.5071C39.1033 31.8528 38.966 32.1843 38.7215 32.4288C38.4771 32.6732 38.1455 32.8106 37.7998 32.8106Z"
        stroke="#ffffff" fill="ffffff" />
    <path
        d="M31.2823 39.3277H23.4617C23.116 39.3277 22.7844 39.1903 22.54 38.9459C22.2956 38.7014 22.1582 38.3699 22.1582 38.0242V30.2036C22.1582 29.8579 22.2956 29.5264 22.54 29.2819C22.7844 29.0375 23.116 28.9002 23.4617 28.9002H31.2823C31.628 28.9002 31.9595 29.0375 32.204 29.2819C32.4484 29.5264 32.5857 29.8579 32.5857 30.2036V38.0242C32.5857 38.3699 32.4484 38.7014 32.204 38.9459C31.9595 39.1903 31.628 39.3277 31.2823 39.3277ZM24.7651 36.7208H29.9789V31.507H24.7651V36.7208ZM19.5514 26.1082C18.6096 25.8627 17.7554 25.3581 17.086 24.6517C16.4166 23.9452 15.9586 23.0652 15.7642 22.1115C15.5698 21.1578 15.6467 20.1688 15.9861 19.2566C16.3255 18.3445 16.9139 17.5458 17.6845 16.9512C18.455 16.3566 19.3769 15.9901 20.3453 15.8931C21.3137 15.7961 22.2899 15.9726 23.1631 16.4025C24.0362 16.8325 24.7713 17.4986 25.2849 18.3254C25.7985 19.1521 26.07 20.1063 26.0686 21.0795H28.6754C28.6769 19.5881 28.252 18.1274 27.4507 16.8696C26.6493 15.6118 25.5051 14.6093 24.1528 13.9804C22.8005 13.3515 21.2966 13.1223 19.8183 13.32C18.3401 13.5176 16.9492 14.1338 15.8096 15.0959C14.6701 16.0581 13.8294 17.3259 13.3867 18.7501C12.944 20.1743 12.9177 21.6953 13.311 23.1339C13.7043 24.5725 14.5007 25.8687 15.6064 26.8695C16.712 27.8704 18.0808 28.5343 19.5514 28.7828V26.1082Z"
        stroke="#ffffff" fill="ffffff" />
    <path
        d="M37.656 17.8862L34.645 20.5322L32.7941 18.6813L35.9354 15.9181L32.8593 10.6L28.3755 12.112C27.3252 11.2378 26.1356 10.546 24.8562 10.0656L23.9308 5.43842H17.7785L16.8531 10.0656C15.5635 10.5326 14.3674 11.2255 13.3208 12.112L8.85 10.6L5.77389 15.9181L9.31924 19.0333C9.07809 20.3825 9.07809 21.7638 9.31924 23.113L5.77389 26.2413L8.85 31.5593L13.3338 30.0473C14.3841 30.9216 15.5738 31.6133 16.8531 32.0937L17.7785 36.7209H19.5512V39.3278H17.7785C17.1758 39.3273 16.5918 39.1179 16.126 38.7353C15.6602 38.3527 15.3414 37.8205 15.2238 37.2293L14.5591 33.9446C13.9689 33.6568 13.3985 33.3302 12.8516 32.967L9.6842 34.0358C9.41486 34.1235 9.13324 34.1675 8.85 34.1662C8.39213 34.1693 7.94173 34.0502 7.54531 33.821C7.1489 33.5919 6.82085 33.2611 6.59505 32.8627L3.51894 27.5447C3.2147 27.0221 3.10165 26.4099 3.19914 25.813C3.29664 25.2162 3.59861 24.6718 4.05335 24.2731L6.55595 22.0833C6.52988 21.7444 6.51685 21.4186 6.51685 21.0797C6.51685 20.7408 6.54292 20.4149 6.56898 20.0891L4.05335 17.8862C3.59861 17.4876 3.29664 16.9432 3.19914 16.3463C3.10165 15.7495 3.2147 15.1373 3.51894 14.6146L6.59505 9.29659C6.82085 8.89826 7.1489 8.56744 7.54531 8.33829C7.94173 8.10915 8.39213 7.99 8.85 7.99316C9.13324 7.99185 9.41486 8.03586 9.6842 8.1235L12.8385 9.19232C13.39 8.82905 13.9647 8.50249 14.5591 8.21474L15.2238 4.93008C15.3414 4.33885 15.6602 3.80663 16.126 3.42402C16.5918 3.0414 17.1758 2.83203 17.7785 2.83154H23.9308C24.5336 2.83203 25.1176 3.0414 25.5834 3.42402C26.0492 3.80663 26.368 4.33885 26.4855 4.93008L27.1503 8.21474C27.7404 8.50256 28.3108 8.82913 28.8578 9.19232L32.0251 8.1235C32.2945 8.03586 32.5761 7.99185 32.8593 7.99316C33.3172 7.99 33.7676 8.10915 34.164 8.33829C34.5604 8.56744 34.8885 8.89826 35.1143 9.29659L38.1904 14.6146C38.4946 15.1373 38.6077 15.7495 38.5102 16.3463C38.4127 16.9432 38.1107 17.4876 37.656 17.8862Z"
        stroke="#ffffff" fill="ffffff" />
</svg>