<svg width="42" height="42" viewBox="0 0 42 42" fill="none" xmlns="http://www.w3.org/2000/svg">
    <path
        d="M20.8555 4.4436L21.2291 5.07099C22.921 7.91249 23.8968 11.2641 23.8968 14.852C23.8968 15.6931 23.8429 16.5221 23.7395 17.3337C26.1185 13.9897 29.6762 11.6713 33.696 10.8452L34.3452 10.7097L34.2096 11.3588C33.3718 15.4368 30.9987 19.0368 27.5812 21.4144C27.9427 21.3839 28.3076 21.3692 28.6761 21.3692C31.6453 21.3692 34.4138 22.3572 36.7522 24.0595L37.2353 24.4105L36.7522 24.7616C34.4138 26.4639 31.6453 27.4519 28.6761 27.4519C27.3987 27.4519 26.157 27.2694 24.9717 26.9244C25.1889 27.2138 25.3914 27.5188 25.5765 27.8394C26.5828 29.5826 26.9408 31.5412 26.734 33.4859L26.6714 34.0803L26.1257 33.837C24.3382 33.0436 22.8202 31.755 21.8139 30.0118C21.7832 29.9593 21.7534 29.9063 21.7244 29.8528V35.707H19.9865V29.8528C19.9572 29.9061 19.9274 29.9591 19.897 30.0118C18.8907 31.755 17.3735 33.0436 15.5852 33.8379L15.0395 34.0803L14.9769 33.4859C14.771 31.5412 15.1281 29.5826 16.1344 27.8394C16.3195 27.5188 16.522 27.2138 16.7401 26.9244C15.5361 27.2746 14.2886 27.4522 13.0348 27.4519C10.0656 27.4519 7.29709 26.4639 4.95873 24.7616L4.47559 24.4105L4.95873 24.0595C7.29709 22.3572 10.0656 21.3692 13.0348 21.3692C13.4033 21.3692 13.7682 21.3839 14.1297 21.4144C10.7122 19.0368 8.33919 15.4368 7.5013 11.3588L7.36574 10.7088L8.01572 10.8444C12.0356 11.6704 15.5932 13.9889 17.9722 17.3329C17.8669 16.5101 17.814 15.6815 17.8141 14.852C17.8141 11.2641 18.7899 7.91249 20.4818 5.07099L20.8555 4.4436Z"
        stroke="#ffffff" fill="ffffff" />
</svg>