<svg width="43" height="42" viewBox="0 0 43 42" fill="none" xmlns="http://www.w3.org/2000/svg">
    <path
        d="M12.6792 14.0483H7.46546C7.00453 14.0483 6.56249 14.2314 6.23656 14.5574C5.91064 14.8833 5.72754 15.3253 5.72754 15.7863V19.2621C5.72754 19.723 5.91064 20.1651 6.23656 20.491C6.56249 20.8169 7.00453 21 7.46546 21H10.9413C11.4022 21 11.8443 21.1831 12.1702 21.509C12.4961 21.835 12.6792 22.277 12.6792 22.7379V26.2138C12.6792 26.6747 12.4961 27.1167 12.1702 27.4426C11.8443 27.7686 11.4022 27.9517 10.9413 27.9517H5.72754M24.8446 27.9517H17.893V14.0483H24.8446M19.6309 21H23.1067M30.0584 15.7863C30.0584 15.3253 30.2415 14.8833 30.5674 14.5574C30.8933 14.2314 31.3354 14.0483 31.7963 14.0483H35.2721C35.733 14.0483 36.1751 14.2314 36.501 14.5574C36.8269 14.8833 37.01 15.3253 37.01 15.7863V26.2138C37.01 26.6747 36.8269 27.1167 36.501 27.4426C36.1751 27.7686 35.733 27.9517 35.2721 27.9517H31.7963C31.3354 27.9517 30.8933 27.7686 30.5674 27.4426C30.2415 27.1167 30.0584 26.6747 30.0584 26.2138V15.7863Z"
        stroke="#ffffff" fill="ffffff" stroke-width="3.47583" stroke-linecap="round"
        stroke-linejoin="round"
    />
</svg>