<svg width="42" height="42" viewBox="0 0 42 42" fill="none" xmlns="http://www.w3.org/2000/svg">
<path d="M5.2135 1.80347H33.0202C33.4811 1.80347 33.9231 1.98657 34.2491 2.31249C34.575 2.63841 34.7581 3.08046 34.7581 3.54138V10.4931C34.7581 10.954 34.575 11.396 34.2491 11.7219C33.9231 12.0479 33.4811 12.231 33.0202 12.231H5.2135C4.75258 12.231 4.31053 12.0479 3.98461 11.7219C3.65869 11.396 3.47559 10.954 3.47559 10.4931V3.54138C3.47559 3.08046 3.65869 2.63841 3.98461 2.31249C4.31053 1.98657 4.75258 1.80347 5.2135 1.80347ZM5.2135 15.7068H33.0202C33.4811 15.7068 33.9231 15.8899 34.2491 16.2158C34.575 16.5417 34.7581 16.9838 34.7581 17.4447V18.6091L30.4133 16.68L19.1168 21.6852V26.1343H5.2135C4.75258 26.1343 4.31053 25.9512 3.98461 25.6253C3.65869 25.2994 3.47559 24.8573 3.47559 24.3964V17.4447C3.47559 16.9838 3.65869 16.5417 3.98461 16.2158C4.31053 15.8899 4.75258 15.7068 5.2135 15.7068ZM5.2135 29.6101H19.1168C19.2211 33.5204 20.8548 37.257 23.3921 40.0376H5.2135C4.75258 40.0376 4.31053 39.8545 3.98461 39.5286C3.65869 39.2027 3.47559 38.7606 3.47559 38.2997V31.3481C3.47559 30.8871 3.65869 30.4451 3.98461 30.1192C4.31053 29.7932 4.75258 29.6101 5.2135 29.6101ZM13.9031 8.75513H15.641V5.2793H13.9031V8.75513ZM13.9031 22.6585H15.641V19.1826H13.9031V22.6585ZM13.9031 36.5618H15.641V33.086H13.9031V36.5618ZM6.95142 5.2793V8.75513H10.4273V5.2793H6.95142ZM6.95142 19.1826V22.6585H10.4273V19.1826H6.95142ZM6.95142 33.086V36.5618H10.4273V33.086H6.95142ZM30.4133 20.9206L38.2339 24.3964V29.6101C38.2339 34.4415 34.8971 38.9427 30.4133 40.0376C25.9295 38.9427 22.5927 34.4415 22.5927 29.6101V24.3964L30.4133 20.9206ZM30.4133 24.2921L26.0685 26.2386V30.8614C26.0685 33.5378 27.9281 36.0404 30.4133 36.6661V24.2921Z" fill="#fff"/>
</svg>
