<svg width="42" height="42" viewBox="0 0 42 42" fill="none" xmlns="http://www.w3.org/2000/svg">
<path d="M5.78701 27.8721H19.1168V22.6583H6.95142L5.78701 27.8721ZM22.5927 27.8721H35.9225L34.7581 22.6583H22.5927V27.8721ZM36.6872 31.3479H22.5927V38.2996H38.2339L36.6872 31.3479ZM3.47559 38.2996H19.1168V31.3479H5.02233L3.47559 38.2996ZM19.1168 13.9688H22.5927V19.1825H19.1168V13.9688ZM27.3963 12.5871L29.8554 10.1297L33.5415 13.8158L31.0841 16.2732L27.3963 12.5871ZM8.17665 13.8176L11.8628 10.128L14.3202 12.5889L10.6358 16.275L8.17665 13.8176ZM5.2135 3.54126H10.4273V7.01709H5.2135V3.54126ZM31.2823 3.54126H36.496V7.01709H31.2823V3.54126ZM20.8548 12.2308C25.6514 12.2308 29.5443 8.33791 29.5443 3.54126H12.1652C12.1652 8.33791 16.0581 12.2308 20.8548 12.2308Z" fill="#EE9143"/>
</svg>
