<svg width="45" height="44" viewBox="0 0 45 44" fill="none" xmlns="http://www.w3.org/2000/svg">
<path d="M22.5137 2.14844C11.5395 2.14844 2.66211 11.0258 2.66211 22C2.66211 32.9742 11.5395 41.8516 22.5137 41.8516C33.4879 41.8516 42.3652 32.9742 42.3652 22C42.3652 11.0258 33.4879 2.14844 22.5137 2.14844ZM22.5137 4.72656C32.0441 4.72656 39.7871 12.4695 39.7871 22C39.7871 31.5305 32.0441 39.2734 22.5137 39.2734C12.9832 39.2734 5.24023 31.5305 5.24023 22C5.24023 12.4695 12.9832 4.72656 22.5137 4.72656ZM7.43336 17.5227C7.02859 19.1727 6.78711 20.7023 6.78711 22.1633C19.2223 24.7672 17.2285 27.5258 19.5059 37.443C20.4855 37.6234 21.4824 37.7266 22.5137 37.7266C23.5449 37.7266 24.5418 37.6234 25.5215 37.443C27.7988 27.5258 25.8051 24.7672 38.2402 22.1633C38.1887 20.5391 37.9824 18.8633 37.5957 17.5227C30.3082 15.7008 26.3895 14.7812 22.5137 14.7812C18.6379 14.7812 14.7191 15.7008 7.43336 17.5227ZM22.5137 15.7266C25.9684 15.7266 28.7871 18.5453 28.7871 22C28.7871 25.4547 25.9684 28.2734 22.5137 28.2734C19.059 28.2734 16.2402 25.4547 16.2402 22C16.2402 18.5453 19.059 15.7266 22.5137 15.7266ZM22.5137 17.2734C19.8926 17.2734 17.7871 19.3789 17.7871 22C17.7871 24.6211 19.8926 26.7266 22.5137 26.7266C25.1348 26.7266 27.2402 24.6211 27.2402 22C27.2402 19.3789 25.1348 17.2734 22.5137 17.2734Z" fill="#fff"/>
</svg>
