<svg width="42" height="42" viewBox="0 0 42 42" fill="none" xmlns="http://www.w3.org/2000/svg">
<g clip-path="url(#clip0_435_160)">
<path d="M46.1371 5.83249L20.5408 8.84006V12.2316H46.1371V14.3646H20.5408V25.0297H46.1371C46.1371 28.8905 44.9213 32.41 42.5536 35.5882C40.186 38.7664 37.1144 41.0914 33.3389 42.6272V46.36H16.2747V42.6272C12.5206 41.0914 9.42771 38.7451 7.06005 35.5882C4.69239 32.4313 3.47656 28.8905 3.47656 25.0297H9.87565V7.96552L46.1371 3.69946V5.83249ZM12.0087 9.84258V12.2316H14.1417V9.62928L12.0087 9.84258ZM12.0087 14.3646V25.0297H14.1417V14.3646H12.0087ZM18.4078 25.0297V14.3646H16.2747V25.0297H18.4078ZM18.4078 12.2316V9.13868L16.2747 9.33066V12.2316H18.4078Z" fill="#fff"/>
</g>
<defs>
<clipPath id="clip0_435_160">
<rect width="41.7125" height="41.7125" fill="white" transform="translate(0 0.223389)"/>
</clipPath>
</defs>
</svg>
