<svg width="44" height="45" viewBox="0 0 44 45" fill="none" xmlns="http://www.w3.org/2000/svg">
<path d="M42.1667 8.43716V5.13716L38.8667 4.77049C38.6834 4.77049 37.5834 4.58716 35.7501 4.58716C28.2334 4.58716 22.7334 6.78716 19.6167 10.6372C17.2334 9.17049 13.9334 8.25382 10.0834 8.25382C8.25006 8.25382 6.96673 8.43716 6.96673 8.43716L3.4834 8.98716L3.66673 12.1038C3.85007 17.6038 6.60007 28.0538 16.1334 28.0538H16.5001V34.2872C9.5334 35.2038 3.66673 37.5872 3.66673 37.5872V41.2538H40.3334V37.5872C40.3334 37.5872 34.4667 35.2038 27.5001 34.2872V28.4205C39.0501 28.2372 42.1667 15.2205 42.1667 8.43716ZM22.0001 33.9205H20.1667V23.6538C20.1667 23.6538 19.8001 17.4205 14.6667 17.4205C14.6667 17.4205 17.4167 18.8872 18.1501 24.2038C17.4167 24.3872 16.6834 24.3872 16.1334 24.3872C7.70007 24.3872 7.3334 12.1038 7.3334 12.1038C7.3334 12.1038 8.4334 11.9205 10.0834 11.9205C13.5667 11.9205 19.2501 12.6538 20.9001 17.6038C21.8167 9.35383 31.1667 8.25382 35.7501 8.25382C37.4001 8.25382 38.5001 8.43716 38.5001 8.43716C38.5001 8.43716 38.5001 24.9372 26.9501 24.9372H25.6667C25.6667 21.2705 29.3334 15.7705 29.3334 15.7705C23.8334 17.6038 23.8334 24.7538 23.8334 24.7538V33.9205H22.0001Z" fill="#EE9143"/>
</svg>
