<svg width="43" height="42" viewBox="0 0 43 42" fill="none" xmlns="http://www.w3.org/2000/svg">
<path d="M28.3201 7.09668C28.3201 5.18497 29.8842 3.62085 31.7959 3.62085C33.7076 3.62085 35.2718 5.18497 35.2718 7.09668C35.2718 9.00839 33.7076 10.5725 31.7959 10.5725C29.8842 10.5725 28.3201 9.00839 28.3201 7.09668ZM36.6273 13.3184C35.1501 12.6754 33.5338 12.3104 31.7959 12.3104C30.6315 12.3104 29.5193 12.4842 28.4591 12.7971C29.4671 13.7529 30.058 15.0911 30.058 16.5336V17.5242H38.7476V16.5336C38.7476 15.1259 37.8786 13.8746 36.6273 13.3184ZM10.9409 10.5725C12.8526 10.5725 14.4168 9.00839 14.4168 7.09668C14.4168 5.18497 12.8526 3.62085 10.9409 3.62085C9.02922 3.62085 7.46509 5.18497 7.46509 7.09668C7.46509 9.00839 9.02922 10.5725 10.9409 10.5725ZM14.2777 12.7971C13.2176 12.4842 12.1053 12.3104 10.9409 12.3104C9.20301 12.3104 7.58675 12.6754 6.10952 13.3184C4.85822 13.8746 3.98926 15.1259 3.98926 16.5336V17.5242H12.6788V16.5336C12.6788 15.0911 13.2697 13.7529 14.2777 12.7971ZM17.8926 7.09668C17.8926 5.18497 19.4567 3.62085 21.3684 3.62085C23.2801 3.62085 24.8443 5.18497 24.8443 7.09668C24.8443 9.00839 23.2801 10.5725 21.3684 10.5725C19.4567 10.5725 17.8926 9.00839 17.8926 7.09668ZM28.3201 17.5242H14.4168V16.5336C14.4168 15.1259 15.2857 13.8746 16.537 13.3184C18.0142 12.6754 19.6305 12.3104 21.3684 12.3104C23.1063 12.3104 24.7226 12.6754 26.1998 13.3184C27.4511 13.8746 28.3201 15.1259 28.3201 16.5336V17.5242ZM26.5822 27.9517C26.5822 26.04 28.1463 24.4759 30.058 24.4759C31.9697 24.4759 33.5338 26.04 33.5338 27.9517C33.5338 29.8634 31.9697 31.4275 30.058 31.4275C28.1463 31.4275 26.5822 29.8634 26.5822 27.9517ZM37.0097 38.3792H23.1063V37.3886C23.1063 35.9809 23.9753 34.7296 25.2266 34.1734C26.7038 33.5304 28.3201 33.1654 30.058 33.1654C31.7959 33.1654 33.4122 33.5304 34.8894 34.1734C36.1407 34.7296 37.0097 35.9809 37.0097 37.3886V38.3792ZM9.20301 27.9517C9.20301 26.04 10.7671 24.4759 12.6788 24.4759C14.5905 24.4759 16.1547 26.04 16.1547 27.9517C16.1547 29.8634 14.5905 31.4275 12.6788 31.4275C10.7671 31.4275 9.20301 29.8634 9.20301 27.9517ZM19.6305 38.3792H5.72717V37.3886C5.72717 35.9809 6.59613 34.7296 7.84743 34.1734C9.32466 33.5304 10.9409 33.1654 12.6788 33.1654C14.4168 33.1654 16.033 33.5304 17.5102 34.1734C18.7615 34.7296 19.6305 35.9809 19.6305 37.3886V38.3792ZM22.6719 22.7379V19.2621H20.065V22.7379H16.1547L21.3684 27.9517L26.5822 22.7379H22.6719Z" fill="#EE9143"/>
</svg>
