<svg width="44" height="45" viewBox="0 0 44 45" fill="none" xmlns="http://www.w3.org/2000/svg">
<path d="M26.583 15.5871H28.4163V13.7537H26.583V15.5871ZM22.9163 15.5871H24.7497V13.7537H22.9163V15.5871ZM25.6663 42.1704L12.833 38.5954V21.0871H16.408L27.7747 25.3037C28.783 25.6704 29.6007 26.3121 30.2277 27.2287C30.8535 28.1454 31.1663 29.1537 31.1663 30.2537H27.4997C26.2163 30.2537 25.208 30.2079 24.4747 30.1162C23.7413 30.0246 23.0997 29.8871 22.5497 29.7037L18.883 28.5121L18.333 30.2537L21.2205 31.3079C22.0761 31.644 22.8552 31.8579 23.558 31.9496C24.2608 32.0412 25.0858 32.0871 26.033 32.0871H34.833C36.8497 32.0871 38.2705 32.4159 39.0955 33.0734C39.9205 33.7297 40.333 34.6232 40.333 35.7537V37.5871L25.6663 42.1704ZM1.83301 41.2537V21.0871H9.16634V41.2537H1.83301ZM33.9622 26.5871C33.5344 25.5787 32.9233 24.6926 32.1288 23.9287C31.3344 23.1649 30.3566 22.569 29.1955 22.1412L16.4997 17.4204H12.833V12.8371L25.6663 3.67041L38.4997 12.8371V26.5871H33.9622ZM26.583 19.2537H28.4163V17.4204H26.583V19.2537ZM22.9163 19.2537H24.7497V17.4204H22.9163V19.2537Z" fill="#EE9143"/>
</svg>
