<svg width="42" height="42" viewBox="0 0 42 42" fill="none" xmlns="http://www.w3.org/2000/svg">
    <g clip-path="url(#clip0_1121_341)">
        <path
            d="M13.9037 27.8722H27.807M20.8554 20.9206V27.8722M10.4279 10.4931V8.75513C10.4279 3.54138 13.0347 1.80347 17.3795 1.80347H24.3312C28.676 1.80347 31.2829 4.41034 31.2829 8.75513V10.4931C36.4966 10.4931 39.9725 13.9689 39.9725 19.1826C39.9725 24.3964 36.4966 27.8722 31.2829 27.8722M10.4279 10.4931H24.3312M10.4279 10.4931C5.21411 10.4931 1.73828 13.0999 1.73828 19.1826C1.73828 25.2653 5.21411 27.8722 10.4279 27.8722M13.9037 40.0376H27.807V20.9206H13.9037V40.0376Z"
            stroke="#ffffff" fill="ffffff" stroke-width="3.47583"/>
    </g>
    <defs>
        <clipPath id="clip0_1121_341">
            <rect width="41.71" height="41.71" stroke="#ffffff" fill="ffffff" transform="translate(0 0.0654297)" />
        </clipPath>
    </defs>
</svg>