<svg width="45" height="44" viewBox="0 0 45 44" fill="none" xmlns="http://www.w3.org/2000/svg">
<path d="M23.7175 5.04175V8.25008H27.3383C27.9818 8.25008 28.6107 8.44441 29.1423 8.80558L32.2535 10.9212C32.3287 10.9726 32.4185 11.0001 32.5102 11.0001H40.0305C40.3952 11.0001 40.7449 11.1449 41.0028 11.4028C41.2606 11.6607 41.4055 12.0104 41.4055 12.3751C41.4055 12.7398 41.2606 13.0895 41.0028 13.3474C40.7449 13.6052 40.3952 13.7501 40.0305 13.7501H37.1375L43.3085 27.8301C43.4323 28.1116 43.458 28.4264 43.3816 28.7243C43.3051 29.0221 43.1309 29.2857 42.8868 29.4727C42.7035 29.6084 42.5147 29.7349 42.3185 29.8504C41.8535 30.1279 41.3695 30.3724 40.8702 30.5819C39.2119 31.2754 37.4316 31.6301 35.6342 31.6251C33.8374 31.6307 32.0578 31.2767 30.4 30.5837C29.9004 30.3741 29.4164 30.129 28.9517 29.8504C28.7571 29.7378 28.5692 29.6142 28.3888 29.4801L28.3797 29.4727C28.1356 29.2857 27.9614 29.0221 27.8849 28.7243C27.8085 28.4264 27.8342 28.1116 27.958 27.8301L34.1327 13.7501H32.5083C31.8648 13.7501 31.236 13.5557 30.7043 13.1946L27.5932 11.0789C27.5176 11.0272 27.4281 10.9997 27.3365 11.0001H23.7175V37.5834H31.9437C32.3083 37.5834 32.6581 37.7283 32.9159 37.9861C33.1738 38.244 33.3187 38.5937 33.3187 38.9584C33.3187 39.3231 33.1738 39.6728 32.9159 39.9307C32.6581 40.1886 32.3083 40.3334 31.9437 40.3334H12.7413C12.3767 40.3334 12.0269 40.1886 11.7691 39.9307C11.5112 39.6728 11.3663 39.3231 11.3663 38.9584C11.3663 38.5937 11.5112 38.244 11.7691 37.9861C12.0269 37.7283 12.3767 37.5834 12.7413 37.5834H20.9675V11.0001H17.3467C17.2551 11 17.1657 11.0275 17.09 11.0789L13.9807 13.1946C13.449 13.5557 12.8202 13.7501 12.1767 13.7501H10.5523L16.727 27.8301C16.8465 28.1036 16.8738 28.4086 16.8046 28.699C16.7355 28.9894 16.5738 29.2494 16.3438 29.4397C16.1972 29.5589 16.0505 29.6707 15.7755 29.8486C15.3119 30.1488 14.8265 30.4142 14.3235 30.6424C12.6677 31.3946 10.8695 31.7823 9.05084 31.7791C7.23208 31.7829 5.43381 31.3952 3.77817 30.6424C3.27516 30.4142 2.78982 30.1488 2.32617 29.8486C2.13011 29.7239 1.94099 29.5887 1.75967 29.4434C1.53156 29.2509 1.37111 28.9904 1.30183 28.7001C1.23254 28.4097 1.25807 28.1048 1.37467 27.8301L7.5475 13.7501H4.65634C4.29166 13.7501 3.94193 13.6052 3.68407 13.3474C3.4262 13.0895 3.28134 12.7398 3.28134 12.3751C3.28134 12.0104 3.4262 11.6607 3.68407 11.4028C3.94193 11.1449 4.29166 11.0001 4.65634 11.0001H12.1767C12.2683 11.0001 12.3582 10.9726 12.4352 10.9212L15.5427 8.80558C16.0743 8.44258 16.705 8.25008 17.3485 8.25008H20.9675V5.04175C20.9675 4.67708 21.1124 4.32734 21.3702 4.06948C21.6281 3.81161 21.9778 3.66675 22.3425 3.66675C22.7072 3.66675 23.0569 3.81161 23.3148 4.06948C23.5726 4.32734 23.7175 4.67708 23.7175 5.04175ZM4.363 27.8631C5.80591 28.6312 7.4162 29.0311 9.05084 29.0272C10.6855 29.0311 12.2958 28.6312 13.7387 27.8631L9.05084 17.1747L4.363 27.8631ZM30.9647 27.8191C31.115 27.8924 31.2837 27.9712 31.4688 28.0501C32.4405 28.4589 33.8613 28.8751 35.6342 28.8751C37.2504 28.8796 38.8467 28.5186 40.3037 27.8191L35.6342 17.1729L30.9647 27.8191Z" fill="#fff"/>
</svg>
