<svg width="42" height="42" viewBox="0 0 42 42" fill="none" xmlns="http://www.w3.org/2000/svg">
<path d="M2.60645 36.6413H13.0339V39.2482H2.60645V36.6413ZM22.158 37.9448C21.9628 37.9446 21.77 37.9007 21.5941 37.8161C21.4181 37.7315 21.2634 37.6084 21.1413 37.456L16.3186 31.4276H2.60645V28.8207H16.9443C17.1395 28.8208 17.3322 28.8648 17.5082 28.9494C17.6842 29.034 17.8389 29.1571 17.9609 29.3095L22.0629 34.4346L28.8942 24.187C29.0098 24.0136 29.1654 23.8704 29.3478 23.7696C29.5303 23.6687 29.7342 23.6131 29.9426 23.6073C30.151 23.6016 30.3577 23.6459 30.5454 23.7365C30.7331 23.8272 30.8963 23.9615 31.0214 24.1283L34.5407 28.8207H39.1027V31.4276H33.8889C33.6866 31.4276 33.487 31.3805 33.306 31.29C33.125 31.1995 32.9676 31.0681 32.8462 30.9062L30.0412 27.1653L23.2425 37.3647C23.1287 37.5354 22.9763 37.6767 22.7976 37.7773C22.6189 37.8779 22.4189 37.9348 22.2141 37.9435L22.158 37.9448ZM14.3374 21.0001V14.4829H15.6408C17.0231 14.4812 18.3482 13.9313 19.3256 12.9539C20.303 11.9765 20.8528 10.6514 20.8546 9.26914V5.35883H16.9443C15.6095 5.36102 14.327 5.87784 13.3637 6.80173C12.6887 5.5762 11.6975 4.55407 10.4933 3.84179C9.28906 3.12952 7.91587 2.75318 6.51676 2.75195H2.60645V6.66227C2.60886 8.73568 3.43359 10.7235 4.89972 12.1896C6.36585 13.6557 8.35365 14.4805 10.4271 14.4829H11.7305V21.0001H2.60645V23.607H20.8546V21.0001H14.3374ZM16.9443 7.9657H18.2477V9.26914C18.247 9.96031 17.9721 10.623 17.4834 11.1117C16.9947 11.6005 16.332 11.8753 15.6408 11.876H14.3374V10.5726C14.3381 9.8814 14.6129 9.21874 15.1017 8.73C15.5904 8.24127 16.2531 7.96639 16.9443 7.9657ZM10.4271 11.876C9.04483 11.8743 7.71969 11.3244 6.7423 10.347C5.7649 9.36964 5.21504 8.04451 5.21332 6.66227V5.35883H6.51676C7.899 5.36055 9.22414 5.91041 10.2015 6.8878C11.1789 7.8652 11.7288 9.19033 11.7305 10.5726V11.876H10.4271Z" fill="#EE9143"/>
</svg>
