<svg width="42" height="42" viewBox="0 0 42 42" fill="none" xmlns="http://www.w3.org/2000/svg">
<g clip-path="url(#clip0_1121_349)">
<path d="M37.353 5.53996C36.9049 5.25003 36.3924 5.07463 35.8605 5.02917C35.3287 4.98372 34.7939 5.0696 34.303 5.27927L18.2186 11.614C17.8378 11.769 17.4305 11.8486 17.0194 11.8486H6.72227C5.85803 11.8486 5.0292 12.1919 4.41809 12.803C3.80699 13.4141 3.46367 14.243 3.46367 15.1072V15.3679H0.205078V23.1885H3.46367V23.5274C3.48409 24.378 3.8364 25.1869 4.44531 25.7812C5.05421 26.3755 5.87141 26.708 6.72227 26.7078L10.6326 34.9976C10.8974 35.5559 11.3142 36.0281 11.8353 36.3601C12.3564 36.6922 12.9605 36.8705 13.5783 36.8746H15.2207C16.0804 36.8677 16.9025 36.5214 17.508 35.911C18.1135 35.3006 18.4532 34.4757 18.4532 33.616V27.0206L34.303 33.3553C34.6929 33.5105 35.1086 33.5901 35.5282 33.5899C36.1792 33.5794 36.8131 33.3802 37.353 33.0164C37.7818 32.7269 38.1355 32.3395 38.3848 31.8862C38.6341 31.4329 38.7719 30.9267 38.7868 30.4096V8.22504C38.7844 7.69459 38.6526 7.17273 38.4027 6.7048C38.1529 6.23687 37.7925 5.83702 37.353 5.53996ZM15.1946 15.1072V23.5274H6.72227V15.1072H15.1946ZM15.1946 33.616H13.5523L10.3458 26.7078H15.1946V33.616ZM19.4177 23.9184C19.1082 23.7603 18.7855 23.6294 18.4532 23.5274V14.9247C18.7823 14.8568 19.105 14.7609 19.4177 14.638L35.5282 8.22504V30.3313L19.4177 23.9184ZM38.865 16.0196V22.5368C39.7293 22.5368 40.5581 22.1935 41.1692 21.5824C41.7803 20.9713 42.1236 20.1424 42.1236 19.2782C42.1236 18.414 41.7803 17.5851 41.1692 16.974C40.5581 16.3629 39.7293 16.0196 38.865 16.0196Z" fill="#EE9143"/>
</g>
<defs>
<clipPath id="clip0_1121_349">
<rect width="41.71" height="41.71" fill="white" transform="translate(0.205078 0.0654297)"/>
</clipPath>
</defs>
</svg>
