<svg width="43" height="42" viewBox="0 0 43 42" fill="none" xmlns="http://www.w3.org/2000/svg">
<path d="M36.7514 22.3107C36.7514 31.5147 30.6617 38.9947 21.4577 38.9947C12.2537 38.9947 6.16406 31.5147 6.16406 22.3107C9.23609 22.3366 12.2242 23.3165 14.7149 25.1148C17.2057 26.9132 19.0761 29.4411 20.0674 32.3489V19.5301H13.1157C12.0095 19.5301 10.9486 19.0906 10.1664 18.3084C9.38417 17.5262 8.94473 16.4653 8.94473 15.3591V7.01706C8.94473 6.72525 9.03654 6.44084 9.20717 6.20412C9.37779 5.96739 9.61857 5.79035 9.8954 5.69807C10.1722 5.6058 10.4711 5.60296 10.7496 5.68997C11.0281 5.77697 11.2722 5.94941 11.4473 6.18286L15.7017 11.7442L20.2898 3.40219C20.4159 3.20706 20.5888 3.04662 20.7928 2.93553C20.9968 2.82444 21.2254 2.76624 21.4577 2.76624C21.69 2.76624 21.9186 2.82444 22.1226 2.93553C22.3266 3.04662 22.4996 3.20706 22.6256 3.40219L27.2137 11.7442L31.4681 6.18286C31.6432 5.94941 31.8873 5.77697 32.1658 5.68997C32.4444 5.60296 32.7432 5.6058 33.0201 5.69807C33.2969 5.79035 33.5377 5.96739 33.7083 6.20412C33.8789 6.44084 33.9707 6.72525 33.9707 7.01706V15.3591C33.9707 16.4653 33.5313 17.5262 32.7491 18.3084C31.9669 19.0906 30.9059 19.5301 29.7997 19.5301H22.8481V32.3489C23.8393 29.4411 25.7097 26.9132 28.2005 25.1148C30.6913 23.3165 33.6794 22.3366 36.7514 22.3107Z" fill="#EE9143"/>
</svg>
