<svg width="42" height="42" viewBox="0 0 42 42" fill="none" xmlns="http://www.w3.org/2000/svg">
<path d="M37.7298 15.2026C39.9022 13.0302 38.9116 10.4928 37.7298 9.25889L32.5161 4.04514C30.3263 1.87274 27.8063 2.86336 26.5724 4.04514L23.6179 7.01698H19.1167C15.8147 7.01698 13.903 8.75489 12.9297 10.7535L5.21339 18.4698V25.4215L3.97947 26.6381C1.80707 28.8278 2.79768 31.3478 3.97947 32.5817L9.19322 37.7955C10.1317 38.734 11.1397 39.0815 12.0955 39.0815C13.3295 39.0815 14.4591 38.4733 15.1369 37.7955L19.8293 33.0857H26.0684C29.0228 33.0857 30.5175 31.2435 31.0562 29.4361C33.0201 28.9147 34.0976 27.4201 34.532 25.9603C37.2258 25.2651 38.2338 22.7104 38.2338 20.9203V15.7066H37.2084L37.7298 15.2026ZM34.758 20.9203C34.758 21.7024 34.4278 22.6582 33.0201 22.6582H31.2821V24.3961C31.2821 25.1782 30.9519 26.1341 29.5442 26.1341H27.8063V27.872C27.8063 28.654 27.4761 29.6099 26.0684 29.6099H18.4042L12.7038 35.3103C12.1651 35.8143 11.8522 35.5188 11.6611 35.3276L6.46469 30.1486C5.96069 29.6099 6.25614 29.2971 6.44731 29.1059L8.68922 26.8466V19.8949L12.1651 16.4191V19.1824C12.1651 21.2853 13.5554 24.3961 17.3788 24.3961C21.2022 24.3961 22.5926 21.2853 22.5926 19.1824H34.758V20.9203ZM35.262 12.7347L32.3075 15.7066H19.1167V19.1824C19.1167 19.9645 18.7865 20.9203 17.3788 20.9203C15.9711 20.9203 15.6409 19.9645 15.6409 19.1824V13.9686C15.6409 13.1692 15.9363 10.4928 19.1167 10.4928H25.043L29.0055 6.53036C29.5442 6.02636 29.857 6.32181 30.0482 6.51298L35.2446 11.692C35.7486 12.2307 35.4531 12.5436 35.262 12.7347Z" fill="#fff"/>
</svg>
