<svg width="43" height="42" viewBox="0 0 43 42" fill="none" xmlns="http://www.w3.org/2000/svg">
    <path
        d="M8.628 20.9204C11.0276 20.9204 12.9728 18.9752 12.9728 16.5756C12.9728 14.1761 11.0276 12.2308 8.628 12.2308C6.22843 12.2308 4.2832 14.1761 4.2832 16.5756C4.2832 18.9752 6.22843 20.9204 8.628 20.9204Z"
        stroke="#ffffff" fill="ffffff" />
    <path
        d="M16.4493 13.9688C18.8488 13.9688 20.7941 12.0235 20.7941 9.62397C20.7941 7.2244 18.8488 5.27917 16.4493 5.27917C14.0497 5.27917 12.1045 7.2244 12.1045 9.62397C12.1045 12.0235 14.0497 13.9688 16.4493 13.9688Z"
        stroke="#ffffff" fill="ffffff" />
    <path
        d="M26.876 13.9688C29.2756 13.9688 31.2208 12.0235 31.2208 9.62397C31.2208 7.2244 29.2756 5.27917 26.876 5.27917C24.4765 5.27917 22.5312 7.2244 22.5312 9.62397C22.5312 12.0235 24.4765 13.9688 26.876 13.9688Z"
        stroke="#ffffff" fill="ffffff" />
    <path
        d="M34.6973 20.9204C37.0969 20.9204 39.0421 18.9752 39.0421 16.5756C39.0421 14.1761 37.0969 12.2308 34.6973 12.2308C32.2978 12.2308 30.3525 14.1761 30.3525 16.5756C30.3525 18.9752 32.2978 20.9204 34.6973 20.9204Z"
        stroke="#ffffff" fill="ffffff" />
    <path
        d="M30.9431 25.8909C29.4311 24.1182 28.1625 22.6063 26.6331 20.8336C25.8337 19.8951 24.8083 18.9566 23.5917 18.5395C23.4006 18.47 23.2094 18.4179 23.0182 18.3831C22.5838 18.3136 22.1145 18.3136 21.6627 18.3136C21.2108 18.3136 20.7416 18.3136 20.2897 18.4005C20.0985 18.4353 19.9074 18.4874 19.7162 18.5569C18.4997 18.974 17.4917 19.9125 16.6748 20.851C15.1629 22.6236 13.8942 24.1356 12.3648 25.9083C10.0881 28.185 7.29009 30.7049 7.81147 34.2329C8.31546 36.0056 9.58414 37.7609 11.8608 38.2649C13.1295 38.5256 17.1788 37.5002 21.4889 37.5002H21.8017C26.1117 37.5002 30.1611 38.5082 31.4298 38.2649C33.7064 37.7609 34.9751 35.9882 35.4791 34.2329C36.0179 30.6876 33.2198 28.1676 30.9431 25.8909Z"
        stroke="#ffffff" fill="ffffff" />
</svg>