<svg width="42" height="42" viewBox="0 0 42 42" fill="none" xmlns="http://www.w3.org/2000/svg">
<g clip-path="url(#clip0_443_992)">
<path d="M41.8834 26.9677V31.4282H39.2764V28.0676L37.0564 25.8272L37.1175 25.7661C36.5743 26.0648 35.9701 26.2141 35.3048 26.2141C34.7073 26.2141 34.1574 26.0919 33.655 25.8475L31.4553 28.0676V31.4282H28.8483V26.9677L31.8015 24.0348L31.7404 23.8922L26.6282 12.4457L18.3183 21.0204C18.3455 21.2377 18.3658 21.4482 18.3794 21.6518C18.393 21.8555 18.4066 22.0728 18.4201 22.3036V39.2493H21.0272V41.8563H0.170898V39.2493H2.77793V22.3036C2.77793 21.2716 2.96803 20.3008 3.34822 19.391C3.72841 18.4813 4.24439 17.6734 4.89615 16.9673C5.54791 16.2612 6.32187 15.691 7.21804 15.2564C8.1142 14.8219 9.07826 14.5707 10.1102 14.5029L22.4936 1.73246C22.9824 1.21648 23.5527 0.822714 24.2045 0.551148C24.8562 0.279582 25.5352 0.143799 26.2412 0.143799C26.7165 0.143799 27.1917 0.21169 27.667 0.347473C28.1422 0.483256 28.5971 0.686931 29.0316 0.958497C29.4661 1.23006 29.8531 1.54236 30.1925 1.8954C30.532 2.24844 30.8035 2.65578 31.0072 3.11745L38.8283 20.5927C38.9505 20.8643 39.0388 21.1426 39.0931 21.4278C39.1474 21.7129 39.1746 21.9981 39.1746 22.2832C39.1746 22.6091 39.1406 22.9282 39.0727 23.2405C39.0048 23.5528 38.8894 23.8583 38.7265 24.157L38.8894 23.9941L41.8834 26.9677ZM15.8131 39.2493V22.3036C15.8131 21.5839 15.6773 20.9118 15.4058 20.2872C15.1342 19.6626 14.7608 19.1059 14.2855 18.6171C13.8103 18.1283 13.2604 17.7549 12.6358 17.4969C12.0112 17.2389 11.3323 17.1031 10.599 17.0895C9.87938 17.0895 9.20726 17.2253 8.58266 17.4969C7.95805 17.7684 7.40134 18.1418 6.91252 18.6171C6.42371 19.0923 6.0503 19.6422 5.79232 20.2668C5.53433 20.8914 5.39854 21.5704 5.38497 22.3036V39.2493H15.8131ZM13.2875 14.9509C14.1294 15.2632 14.8966 15.7045 15.5891 16.2748C16.2816 16.8451 16.8586 17.5172 17.3203 18.2912L28.115 7.17057C28.6039 6.65459 28.8483 6.05036 28.8483 5.35787C28.8483 4.99125 28.7804 4.65179 28.6446 4.33949C28.5088 4.02719 28.3255 3.75563 28.0947 3.5248C27.8638 3.29396 27.5855 3.10387 27.2596 2.95451C26.9337 2.80515 26.5943 2.73725 26.2412 2.75083C25.4944 2.75083 24.8698 3.01561 24.3674 3.54516L13.2875 14.9509ZM30.498 8.35188C30.2536 8.74565 29.9549 9.10548 29.6019 9.43136C29.2488 9.75724 28.9094 10.0899 28.5835 10.4294L32.5959 19.4114L34.9789 18.393L30.498 8.35188ZM35.3048 23.6071C35.6985 23.6071 36.0108 23.4781 36.2417 23.2201C36.4725 22.9621 36.5879 22.6498 36.5879 22.2832C36.5879 22.0117 36.5268 21.7537 36.4046 21.5093C36.2824 21.2648 36.1602 21.0204 36.038 20.776L33.655 21.7944C33.7365 21.9981 33.8179 22.2085 33.8994 22.4258C33.9809 22.643 34.0827 22.8399 34.2049 23.0164C34.3271 23.193 34.4697 23.3355 34.6326 23.4442C34.7956 23.5528 35.0196 23.6071 35.3048 23.6071ZM10.599 21.0001C10.9656 21.0001 11.3051 21.068 11.6174 21.2037C11.9297 21.3395 12.2013 21.5228 12.4321 21.7537C12.6629 21.9845 12.853 22.2628 13.0024 22.5887C13.1518 22.9146 13.2196 23.2541 13.2061 23.6071C13.2061 23.9737 13.1382 24.3132 13.0024 24.6255C12.8666 24.9378 12.6833 25.2093 12.4525 25.4402C12.2216 25.671 11.9433 25.8611 11.6174 26.0105C11.2915 26.1598 10.9521 26.2277 10.599 26.2141C10.2324 26.2141 9.89296 26.1462 9.58066 26.0105C9.26836 25.8747 8.99679 25.6914 8.76596 25.4605C8.53513 25.2297 8.34504 24.9514 8.19567 24.6255C8.04631 24.2996 7.97842 23.9601 7.992 23.6071C7.992 23.2405 8.05989 22.901 8.19567 22.5887C8.33146 22.2764 8.51476 22.0049 8.74559 21.774C8.97643 21.5432 9.25478 21.3531 9.58066 21.2037C9.90654 21.0544 10.246 20.9865 10.599 21.0001Z" fill="#EE9143"/>
</g>
<defs>
<clipPath id="clip0_443_992">
<rect width="41.7125" height="41.7125" fill="white" transform="translate(0.170898 0.143799)"/>
</clipPath>
</defs>
</svg>
