<svg width="42" height="42" viewBox="0 0 42 42" fill="none" xmlns="http://www.w3.org/2000/svg">
<path d="M38.2345 15.7066H29.9099L22.2978 4.30585C21.9676 3.81924 21.4115 3.57593 20.8554 3.57593C20.2992 3.57593 19.7431 3.81924 19.4129 4.32323L11.8008 15.7066H3.4762C2.52034 15.7066 1.73828 16.4886 1.73828 17.4445C1.73828 17.6009 1.75566 17.7573 1.8078 17.9137L6.22211 34.0242C6.62183 35.4841 7.96002 36.5616 9.55891 36.5616H32.1518C33.7507 36.5616 35.0889 35.4841 35.506 34.0242L39.9203 17.9137L39.9725 17.4445C39.9725 16.4886 39.1904 15.7066 38.2345 15.7066ZM20.8554 8.40734L25.7215 15.7066H15.9892L20.8554 8.40734ZM32.1518 33.0858L9.57629 33.1031L5.75287 19.1824H35.9752L32.1518 33.0858ZM20.8554 22.6583C18.9437 22.6583 17.3795 24.2224 17.3795 26.1341C17.3795 28.0458 18.9437 29.6099 20.8554 29.6099C22.7671 29.6099 24.3312 28.0458 24.3312 26.1341C24.3312 24.2224 22.7671 22.6583 20.8554 22.6583Z" fill="#EE9143"/>
</svg>
