<svg width="42" height="42" viewBox="0 0 42 42" fill="none" xmlns="http://www.w3.org/2000/svg">
    <path
        d="M17.3789 17.5242V8.8346C17.3789 8.37368 17.562 7.93163 17.8879 7.60571C18.2139 7.27978 18.6559 7.09668 19.1168 7.09668H20.8547L24.3306 3.62085H31.2822L34.7581 7.09668H36.496C36.9569 7.09668 37.399 7.27978 37.7249 7.60571C38.0508 7.93163 38.2339 8.37368 38.2339 8.8346V17.5242C38.2339 17.9851 38.0508 18.4272 37.7249 18.7531C37.399 19.079 36.9569 19.2621 36.496 19.2621H19.1168C18.6559 19.2621 18.2139 19.079 17.8879 18.7531C17.562 18.4272 17.3789 17.9851 17.3789 17.5242Z"
        stroke="#ffffff" stroke-width="3.47583" stroke-linecap="round" stroke-linejoin="round" />
    <path
        d="M27.8063 14.0483C28.7661 14.0483 29.5442 13.2703 29.5442 12.3104C29.5442 11.3506 28.7661 10.5725 27.8063 10.5725C26.8465 10.5725 26.0684 11.3506 26.0684 12.3104C26.0684 13.2703 26.8465 14.0483 27.8063 14.0483Z"
        stroke="#ffffff" stroke-width="3.47583" stroke-linecap="round" stroke-linejoin="round" />
    <path fill-rule="evenodd" clip-rule="evenodd"
        d="M12.1652 3.62085H8.68934C7.30656 3.62085 5.98043 4.17015 5.00266 5.14792C4.02489 6.12569 3.47559 7.45183 3.47559 8.8346V27.0827C3.47559 27.2322 3.4947 27.3782 3.5312 27.5172C3.49441 27.6591 3.47573 27.8051 3.47559 27.9517V33.1654C3.47559 34.5482 4.02489 35.8743 5.00266 36.8521C5.98043 37.8299 7.30656 38.3792 8.68934 38.3792H33.0202C34.4029 38.3792 35.7291 37.8299 36.7068 36.8521C37.6846 35.8743 38.2339 34.5482 38.2339 33.1654V24.4759H19.699C20.6844 24.9034 21.7098 25.4213 22.7248 26.0313C25.1561 27.4911 27.6274 29.5419 29.2906 32.2582C29.4097 32.4529 29.4894 32.6692 29.5249 32.8946C29.5605 33.1201 29.5513 33.3503 29.4979 33.5722C29.4445 33.7941 29.3479 34.0033 29.2136 34.1879C29.0793 34.3724 28.91 34.5287 28.7154 34.6479C28.5207 34.767 28.3044 34.8466 28.079 34.8822C27.8535 34.9178 27.6233 34.9086 27.4014 34.8552C27.1795 34.8017 26.9703 34.7051 26.7857 34.5709C26.6012 34.4366 26.4448 34.2673 26.3257 34.0726C25.0466 31.9819 23.0619 30.2874 20.9347 29.0101C18.811 27.7344 16.6507 26.9385 15.1526 26.5909C13.0423 26.109 10.8815 25.8837 8.71714 25.9201H8.67891C8.07411 25.9287 7.49713 25.9548 6.95142 25.9983V8.8346C6.95142 8.37368 7.13452 7.93163 7.46044 7.60571C7.78637 7.27978 8.22841 7.09668 8.68934 7.09668H12.1652V3.62085ZM12.1652 11.3946C12.1524 11.4032 12.1396 11.4119 12.1269 11.4206C11.1363 12.1332 10.4273 13.308 10.4273 14.9173C10.4273 16.5266 11.1363 17.6997 12.1269 18.4123L12.1652 18.4401V11.3946Z"
        fill="#fff" />
</svg>