<svg width="53" height="42" viewBox="0 0 53 42" fill="none" xmlns="http://www.w3.org/2000/svg">
<g clip-path="url(#clip0_1121_353)">
<path d="M4.89817 30.6636C5.08554 31.3561 5.80243 31.7715 6.49488 31.5842L24.1239 26.8592C24.8163 26.6718 25.2318 25.955 25.0444 25.2625L20.9956 10.1508C20.8083 9.45833 20.0914 9.04286 19.3989 9.23022L13.1098 10.9247L15.1302 18.4765L10.0956 19.8207L8.0753 12.2689L1.77807 13.9552C1.08562 14.1426 0.670148 14.8594 0.857517 15.5519L4.89817 30.6636ZM32.0911 0.0654297C30.6492 0.0654297 29.4843 1.23038 29.4843 2.6723V29.0343L1.28928 36.7246C0.938982 36.8224 0.73532 37.1808 0.833078 37.523L1.85953 41.2948C1.95729 41.6451 2.31574 41.8487 2.65789 41.751L34.7306 33.0017C34.9261 37.8733 38.9016 41.7754 43.8221 41.7754C48.8647 41.7754 52.9461 37.694 52.9461 32.6514V0.0654297H32.0911ZM43.8221 36.5617C41.6633 36.5617 39.9118 34.8102 39.9118 32.6514C39.9118 30.4925 41.6633 28.7411 43.8221 28.7411C45.9809 28.7411 47.7324 30.4925 47.7324 32.6514C47.7324 34.8102 45.9809 36.5617 43.8221 36.5617Z" fill="#EE9143"/>
</g>
<defs>
<clipPath id="clip0_1121_353">
<rect width="52.14" height="41.71" fill="white" transform="translate(0.807617 0.0654297)"/>
</clipPath>
</defs>
</svg>
