<svg width="42" height="42" viewBox="0 0 42 42" fill="none" xmlns="http://www.w3.org/2000/svg">
    <path
        d="M21.4808 4.09448C20.1122 4.09448 18.9912 5.2024 18.9912 6.58405V8.34369C18.9912 8.67062 19.0556 8.99436 19.1807 9.2964C19.3058 9.59845 19.4892 9.8729 19.7204 10.1041C19.9516 10.3353 20.226 10.5186 20.5281 10.6437C20.8301 10.7689 21.1538 10.8333 21.4808 10.8333C21.8077 10.8333 22.1314 10.7689 22.4335 10.6437C22.7355 10.5186 23.01 10.3353 23.2412 10.1041C23.4723 9.8729 23.6557 9.59845 23.7808 9.2964C23.9059 8.99436 23.9703 8.67062 23.9703 8.34369V6.58405C23.9659 5.92515 23.7022 5.29449 23.2363 4.82857C22.7703 4.36264 22.1397 4.09892 21.4808 4.09448Z"
        stroke="#ffffff" fill="ffffff" />
    <path
        d="M18.0006 15.9166V8.69556C18.0006 10.6116 19.5647 12.1757 21.4808 12.1757C23.3968 12.1757 24.961 10.6116 24.961 8.69556V17.8978H18.0006V19.5662H24.961V19.8269H24.9818C25.0769 20.6786 25.482 21.4654 26.12 22.0376C26.758 22.6097 27.5842 22.927 28.4411 22.9291C29.2981 22.927 30.1243 22.6097 30.7623 22.0376C31.4002 21.4654 31.8054 20.6786 31.9005 19.8269H31.9213V24.4632H25.0001V26.1316H31.9213V30.9231L33.2951 28.9783L32.3645 26.4106C32.3077 26.2486 32.3171 26.0708 32.3907 25.9158C32.4642 25.7607 32.5959 25.6409 32.7573 25.5824C32.9186 25.5238 33.0965 25.5313 33.2523 25.6032C33.4082 25.675 33.5294 25.8054 33.5897 25.9661L34.2114 27.6801L35.1525 26.348L34.2297 23.8324C34.1767 23.6718 34.1882 23.497 34.2617 23.3448C34.3352 23.1925 34.4649 23.0748 34.6236 23.0164C34.7823 22.9581 34.9574 22.9637 35.112 23.032C35.2666 23.1003 35.3887 23.2261 35.4523 23.3827L36.0662 25.0537L37.1246 23.5574C37.2277 23.4255 37.3775 23.3383 37.5431 23.3139C37.7086 23.2895 37.8773 23.3297 38.014 23.4262C38.1507 23.5227 38.2451 23.6681 38.2775 23.8323C38.3099 23.9965 38.278 24.1669 38.1882 24.3081L37.1298 25.8071L38.9129 25.8227C38.9985 25.8234 39.0831 25.8409 39.1619 25.8743C39.2408 25.9077 39.3122 25.9563 39.3723 26.0173C39.4323 26.0783 39.4797 26.1505 39.5118 26.2299C39.544 26.3092 39.5601 26.3941 39.5594 26.4797C39.5588 26.5652 39.5412 26.6499 39.5078 26.7287C39.4745 26.8075 39.4259 26.8789 39.3649 26.939C39.3039 26.999 39.2316 27.0464 39.1523 27.0786C39.073 27.1107 38.9881 27.1268 38.9025 27.1262L36.2148 27.1027L35.3063 28.3892L37.036 28.4035C37.2088 28.4049 37.3741 28.4749 37.4953 28.5981C37.6165 28.7213 37.6839 28.8876 37.6825 29.0605C37.6811 29.2333 37.6111 29.3985 37.4879 29.5198C37.3647 29.641 37.1984 29.7084 37.0256 29.707L34.3926 29.6848L33.1596 31.4275H31.92H33.9794C34.2923 31.4275 34.5269 31.6752 34.5269 31.975V38.7398C34.5269 39.1439 34.201 39.4828 33.7839 39.4828H9.16329C8.75922 39.4828 8.42033 39.1439 8.42033 38.7398V31.975C8.42033 31.6752 8.66798 31.4275 8.96777 31.4275H9.78894L9.68466 31.2411L8.24697 30.7067L6.94875 31.9163C6.88716 31.9792 6.81348 32.029 6.73213 32.0626C6.65079 32.0962 6.56347 32.113 6.47545 32.112C6.38743 32.111 6.30054 32.0921 6.22001 32.0566C6.13947 32.021 6.06697 31.9696 6.00688 31.9052C5.94679 31.8409 5.90035 31.7651 5.87037 31.6823C5.84038 31.5996 5.82747 31.5116 5.83242 31.4237C5.83736 31.3358 5.86006 31.2498 5.89914 31.171C5.93822 31.0921 5.99288 31.022 6.05981 30.9648L6.88097 30.1984L6.0194 29.8777L4.23369 31.1603C4.11427 31.242 3.96762 31.2738 3.82508 31.2488C3.68255 31.2238 3.55547 31.144 3.471 31.0265C3.38654 30.909 3.3514 30.7631 3.37312 30.62C3.39483 30.477 3.47166 30.3481 3.58718 30.2609L4.7681 29.4124L3.73578 29.0279C3.57365 28.9677 3.44205 28.8456 3.36994 28.6885C3.29783 28.5313 3.29111 28.3519 3.35126 28.1898C3.41141 28.0276 3.53351 27.896 3.69068 27.8239C3.84786 27.7518 4.02724 27.7451 4.18937 27.8053L5.13306 28.1572L4.78374 26.8811C4.76457 26.8109 4.75941 26.7377 4.76855 26.6655C4.7777 26.5933 4.80097 26.5237 4.83704 26.4605C4.87311 26.3973 4.92127 26.3418 4.97877 26.2973C5.03627 26.2527 5.10198 26.2199 5.17216 26.2007C5.24234 26.1816 5.31561 26.1764 5.38779 26.1855C5.45996 26.1947 5.52963 26.218 5.59281 26.254C5.65599 26.2901 5.71145 26.3382 5.75601 26.3958C5.80058 26.4533 5.83339 26.519 5.85256 26.5891L6.41173 28.6329L8.70578 29.4854L7.07909 26.5709C7.03289 26.5135 6.99675 26.4487 6.97221 26.3793L5.67399 24.0553C5.63222 23.9805 5.6056 23.8982 5.59564 23.8131C5.58568 23.728 5.59257 23.6418 5.61593 23.5593C5.63929 23.4769 5.67866 23.3999 5.73178 23.3327C5.78491 23.2655 5.85075 23.2094 5.92555 23.1676C6.00035 23.1259 6.08265 23.0992 6.16774 23.0893C6.25283 23.0793 6.33905 23.0862 6.42147 23.1096C6.5039 23.1329 6.58091 23.1723 6.64813 23.2254C6.71534 23.2785 6.77143 23.3444 6.81319 23.4192L7.61872 24.8634L8.43858 23.5274C8.48226 23.4523 8.54052 23.3866 8.60993 23.3344C8.67934 23.2821 8.75851 23.2442 8.84277 23.223C8.92703 23.2018 9.01468 23.1976 9.10057 23.2108C9.18646 23.2239 9.26885 23.2541 9.34291 23.2996C9.41696 23.345 9.48117 23.4048 9.53177 23.4755C9.58237 23.5461 9.61834 23.6262 9.63755 23.7109C9.65676 23.7956 9.65883 23.8834 9.64365 23.9689C9.62846 24.0545 9.59631 24.1361 9.54911 24.2091L8.34734 26.1681L8.95735 27.263L9.40312 26.537C9.49369 26.3897 9.63906 26.2845 9.80723 26.2444C9.97541 26.2043 10.1526 26.2327 10.2999 26.3232C10.4472 26.4138 10.5524 26.5592 10.5925 26.7274C10.6326 26.8955 10.6042 27.0727 10.5137 27.22L9.68597 28.5678L11.0402 30.9948V23.7633H18.0006V22.0949H11.0402V15.9166H11.0611C11.1562 16.7682 11.5613 17.5551 12.1993 18.1272C12.8373 18.6994 13.6635 19.0167 14.5204 19.0188C15.3774 19.0167 16.2036 18.6994 16.8415 18.1272C17.4795 17.5551 17.8847 16.7682 17.9797 15.9166H18.0006ZM18.0006 27.7779V29.4463H24.961V27.7779H18.0006ZM9.72377 32.7309V36.1329H33.2247V32.7309H9.72377Z"
        stroke="#ffffff" fill="ffffff" />
    <path
        d="M14.5208 10.9375C13.1522 10.9375 12.0312 12.0454 12.0312 13.4271V15.1867C12.0312 15.847 12.2935 16.4802 12.7604 16.9471C13.2273 17.414 13.8605 17.6763 14.5208 17.6763C15.1811 17.6763 15.8143 17.414 16.2812 16.9471C16.7481 16.4802 17.0104 15.847 17.0104 15.1867V13.4271C17.0059 12.7682 16.7422 12.1375 16.2763 11.6716C15.8104 11.2057 15.1797 10.9419 14.5208 10.9375ZM28.4415 14.8478C27.0729 14.8478 25.952 15.9557 25.952 17.3374V19.097C25.952 19.7573 26.2143 20.3905 26.6811 20.8574C27.148 21.3243 27.7813 21.5866 28.4415 21.5866C29.1018 21.5866 29.735 21.3243 30.2019 20.8574C30.6688 20.3905 30.9311 19.7573 30.9311 19.097V17.3374C30.9267 16.6785 30.6629 16.0478 30.197 15.5819C29.7311 15.116 29.1004 14.8523 28.4415 14.8478Z"
        stroke="#ffffff" fill="ffffff" />
</svg>