<svg width="42" height="42" viewBox="0 0 42 42" fill="none" xmlns="http://www.w3.org/2000/svg">
<g clip-path="url(#clip0_1121_362)">
<path d="M4.53394 10.9552C4.85198 10.5277 5.27082 9.94896 5.60624 9.53534C6.61075 8.39526 6.7411 8.2458 7.65524 7.40291C7.92636 7.18046 8.24787 6.91282 8.56243 6.66082C6.24231 8.62467 5.94687 10.7988 8.07582 12.1422C8.07234 12.1422 8.07234 12.1422 8.07234 12.1457C11.0494 13.9392 17.5735 13.5517 22.7212 11.2541C27.7073 9.0296 29.5478 5.84748 27.0869 3.95662C24.9267 3.55169 22.3511 3.50477 19.626 3.86973L19.3427 3.40223L19.5773 2.62712C21.1797 2.48287 22.7021 2.51763 24.016 2.74182C24.334 2.7957 24.7529 2.88781 25.0657 2.95385C25.6705 3.10157 25.999 3.1902 26.3935 3.31707C26.7967 3.43699 27.1408 3.5569 27.7403 3.77936C28.3278 4.0105 28.5815 4.11478 29.0525 4.34939C29.5799 4.59003 30.0924 4.86222 30.5871 5.16448C34.5078 7.63058 32.0695 12.13 25.1508 15.2131C18.2513 18.2857 9.4592 18.7689 5.51934 16.3323C5.5176 16.3289 5.51239 16.3254 5.50196 16.3219H5.50891C3.35737 14.9594 3.13144 12.9816 4.53394 10.9552ZM22.4849 28.1953L22.4293 25.4251L20.4602 23.2353C13.9552 24.7091 7.56139 24.3928 4.00562 22.2986C3.99345 22.2847 3.96391 22.2708 3.95174 22.2569C1.93923 21.0178 1.44219 19.4189 1.59339 17.681C1.12241 20.2235 1.08418 21.1411 1.15196 23.317C1.23538 24.6795 2.02265 25.9361 3.6059 26.9267L3.61806 26.9406C7.40846 29.2972 15.3055 29.8081 22.4849 28.1953ZM30.6965 31.367C21.5151 35.0497 10.024 35.2669 5.03272 31.8589C5.57175 33.1762 6.30519 34.4052 7.2086 35.505C11.7897 38.6333 22.3372 38.4334 30.7608 35.0532C35.6913 33.0772 38.8022 30.4477 39.619 27.9833L39.8484 27.2412C40.3924 25.3608 40.4949 23.7949 40.5818 22.4011C40.4827 25.4268 36.9183 28.8679 30.6965 31.367ZM10.429 38.4595C10.7175 38.7341 11.6246 39.8481 16.2214 41.0785C17.464 41.3531 20.5923 42.2342 26.3709 40.9534L26.4056 40.4268L25.9485 39.7108C20.5871 40.9795 14.6312 40.5554 10.429 38.4595ZM23.6962 16.5461L28.578 20.2461C28.578 20.2461 29.6225 20.9986 28.6371 21.527C27.6552 22.0501 25.1335 23.3309 25.1335 23.3309L22.643 22.4011L21.3935 22.9573L23.5971 24.8707L23.6145 27.8478L24.9093 27.2725L25.7678 24.7577C25.7678 24.7577 28.4042 23.7428 29.4505 23.3605C30.5019 22.9868 30.3611 24.2659 30.3611 24.2659L29.8432 30.3677L31.5638 29.6031L34.3966 21.3705C34.3966 21.3705 35.8981 20.6406 36.9548 19.9993C38.0097 19.358 38.3712 18.2944 38.3712 18.2944C38.3712 18.2944 37.3423 17.8513 36.1571 18.2075C34.9718 18.5603 33.4268 19.1895 33.4268 19.1895L25.4115 15.7849L23.6962 16.5461ZM13.3678 4.83949L16.682 7.47938L17.5874 7.34382L15.7835 4.97504C15.7835 4.97504 15.3907 4.48495 15.919 4.36851C16.4508 4.25033 17.796 3.97574 17.796 3.97574L18.8074 4.78387L19.4887 4.68307L18.7171 3.4561L19.1238 2.09532L18.4651 2.1909L17.6848 3.2267C17.6848 3.2267 16.3153 3.35531 15.7765 3.40049C15.2343 3.4422 15.4672 2.86 15.4672 2.86L16.5064 0.0654297L15.5958 0.199249L13.1975 3.69072C13.1975 3.69072 12.398 3.83671 11.8193 4.00181C11.2388 4.16517 10.933 4.61356 10.933 4.61356C10.933 4.61356 11.3587 4.95766 11.9583 4.9455C12.5631 4.93333 13.3678 4.83949 13.3678 4.83949ZM29.7476 38.7601L27.603 37.6392L27.1095 37.8112L28.3799 38.9478C28.3799 38.9478 28.651 39.179 28.366 39.3024C28.081 39.424 27.3545 39.7229 27.3545 39.7229L26.7549 39.4553L26.3987 39.5839L26.8975 40.1157L26.8488 40.8926L27.2207 40.764L27.4988 40.1331C27.4988 40.1331 28.253 39.9089 28.5537 39.829C28.8526 39.7473 28.7848 40.0983 28.7848 40.0983L28.5015 41.7754L28.9969 41.6034L29.9684 39.3858C29.9684 39.3858 30.3976 39.2172 30.7052 39.0625C31.0128 38.9079 31.1345 38.6228 31.1345 38.6228C31.1345 38.6228 30.8616 38.4734 30.5245 38.5481C30.1856 38.6194 29.7476 38.7601 29.7476 38.7601Z" fill="#EE9143"/>
</g>
<defs>
<clipPath id="clip0_1121_362">
<rect width="41.71" height="41.71" fill="white" transform="translate(0 0.0654297)"/>
</clipPath>
</defs>
</svg>
