<svg width="42" height="42" viewBox="0 0 42 42" fill="none" xmlns="http://www.w3.org/2000/svg">
<g clip-path="url(#clip0_443_486)">
<path d="M35.8445 32.4478C36.7406 32.8958 37.5485 33.4457 38.2681 34.0974C38.9877 34.7491 39.5987 35.4755 40.1011 36.2766C40.6034 37.0777 40.9972 37.9466 41.2823 38.8835C41.5674 39.8203 41.71 40.7843 41.71 41.7755H39.1031C39.1031 40.7029 38.8995 39.6913 38.4921 38.7409C38.0848 37.7905 37.5281 36.9623 36.8221 36.2562C36.1161 35.5502 35.2811 34.9868 34.3171 34.5658C33.3531 34.1449 32.3415 33.9413 31.2825 33.9549C30.1963 33.9549 29.1848 34.1585 28.2479 34.5658C27.3111 34.9732 26.4829 35.5298 25.7633 36.2359C25.0437 36.9419 24.4802 37.7769 24.0729 38.7409C23.6655 39.7049 23.4619 40.7164 23.4619 41.7755H20.855C20.855 40.7843 20.9908 39.8203 21.2623 38.8835C21.5339 37.9466 21.9276 37.0777 22.4436 36.2766C22.9595 35.4755 23.5773 34.7491 24.2969 34.0974C25.0165 33.4457 25.8244 32.8958 26.7205 32.4478C25.7022 31.7146 24.9079 30.7981 24.3376 29.6983C23.7674 28.5985 23.4755 27.4105 23.4619 26.1342C23.4619 25.0616 23.6655 24.0501 24.0729 23.0997C24.4802 22.1492 25.0369 21.321 25.7429 20.615C26.4489 19.909 27.2771 19.3455 28.2276 18.9246C29.178 18.5037 30.1963 18.3 31.2825 18.3136C32.3551 18.3136 33.3666 18.5173 34.3171 18.9246C35.2675 19.3319 36.0957 19.8886 36.8017 20.5946C37.5078 21.3007 38.0712 22.1357 38.4921 23.0997C38.913 24.0637 39.1167 25.0752 39.1031 26.1342C39.1031 27.4105 38.818 28.5985 38.2477 29.6983C37.6775 30.7981 36.8764 31.7146 35.8445 32.4478ZM31.2825 31.348C32.0021 31.348 32.6742 31.2122 33.2988 30.9407C33.9233 30.6691 34.48 30.2957 34.9688 29.8205C35.4576 29.3453 35.831 28.7954 36.0889 28.1709C36.3469 27.5463 36.4827 26.8674 36.4962 26.1342C36.4962 25.4146 36.3605 24.7425 36.0889 24.118C35.8174 23.4934 35.444 22.9367 34.9688 22.448C34.4936 21.9592 33.9437 21.5858 33.3191 21.3278C32.6946 21.0698 32.0157 20.9341 31.2825 20.9205C30.5629 20.9205 29.8908 21.0563 29.2662 21.3278C28.6417 21.5994 28.085 21.9727 27.5962 22.448C27.1074 22.9232 26.734 23.4731 26.4761 24.0976C26.2181 24.7222 26.0823 25.4011 26.0687 26.1342C26.0687 26.8538 26.2045 27.5259 26.4761 28.1505C26.7476 28.7751 27.121 29.3317 27.5962 29.8205C28.0714 30.3093 28.6213 30.6827 29.2459 30.9407C29.8704 31.1986 30.5493 31.3344 31.2825 31.348ZM20.855 32.9773C20.4205 33.4797 20.0268 34.0024 19.6738 34.5455C19.3207 35.0886 19.0085 35.6724 18.7369 36.297C18.0173 35.5502 17.1483 34.9732 16.13 34.5658C15.1117 34.1585 14.0798 33.9549 13.0344 33.9549H5.21375V7.88611H2.60687V36.5617H18.6351C18.445 36.9826 18.2889 37.4103 18.1667 37.8448C18.0445 38.2793 17.9426 38.7206 17.8612 39.1686H0V5.27924H5.21375V2.67236H13.0344C14.2292 2.67236 15.3765 2.85566 16.4763 3.22225C17.576 3.58884 18.6011 4.13873 19.5516 4.87191C20.4884 4.13873 21.5067 3.58884 22.6065 3.22225C23.7063 2.85566 24.8604 2.67236 26.0687 2.67236H33.8894V5.27924H39.1031V18.3136C38.3156 17.5397 37.4467 16.8948 36.4962 16.3788V7.88611H33.8894V15.4012C33.4549 15.279 33.0204 15.1908 32.5859 15.1365C32.1515 15.0822 31.717 15.055 31.2825 15.055V5.27924H26.0687C25.1183 5.27924 24.1951 5.44217 23.2989 5.76803C22.4028 6.09389 21.5882 6.57589 20.855 7.21403V32.9773ZM18.2481 32.7125V7.21403C17.5149 6.58946 16.7003 6.11425 15.8042 5.78839C14.9081 5.46253 13.9848 5.29282 13.0344 5.27924H7.82062V31.348H13.0344C13.9441 31.348 14.8402 31.4634 15.7227 31.6942C16.6053 31.925 17.4471 32.2645 18.2481 32.7125Z" fill="#EE9143"/>
</g>
<defs>
<clipPath id="clip0_443_486">
<rect width="41.71" height="41.71" fill="white" transform="translate(0 0.0654297)"/>
</clipPath>
</defs>
</svg>
