<svg width="43" height="42" viewBox="0 0 43 42" fill="none" xmlns="http://www.w3.org/2000/svg">
    <path
        d="M29.3531 6.58252C24.0644 6.58252 21.4575 11.7963 21.4575 11.7963C21.4575 11.7963 18.8506 6.58252 13.5619 6.58252C9.26385 6.58252 5.86025 10.1784 5.81626 14.4691C5.72665 23.3757 12.8817 29.7096 20.7243 35.0325C20.9405 35.1796 21.196 35.2582 21.4575 35.2582C21.719 35.2582 21.9745 35.1796 22.1907 35.0325C30.0325 29.7096 37.1876 23.3757 37.0988 14.4691C37.0548 10.1784 33.6512 6.58252 29.3531 6.58252Z"
        stroke="#ffffff" fill="ffffff" stroke-width="2.60687" stroke-linecap="round"
        stroke-linejoin="round"
    />
    <path
        d="M4.5127 20.9205H13.6368L17.5471 13.0999L21.4574 26.1342L25.3677 18.3136L27.9746 23.5274H38.4021"
        stroke="#ffffff" fill="ffffff" stroke-width="2.60687" stroke-linecap="round" stroke-linejoin="round" />
</svg>