<svg width="28" height="38" viewBox="0 0 28 38" fill="none" xmlns="http://www.w3.org/2000/svg">
<path d="M19.1422 35.356L11.0449 37.5257C10.468 37.6802 9.86958 37.3347 9.71498 36.7578C9.56047 36.181 9.90593 35.5825 10.4827 35.428L18.58 33.2584C19.1569 33.1038 19.7553 33.4492 19.9099 34.0261C20.0646 34.603 19.719 35.2014 19.1422 35.356ZM15.393 10.4721C15.3205 11.4592 14.7622 12.0155 13.8953 12.0015C13.0323 11.9875 12.4041 11.396 12.4248 10.4953C12.445 9.61893 12.9944 9.04323 13.9292 9.05346C14.8633 9.06351 15.3264 9.61549 15.393 10.4721ZM25.7739 7.14547C22.5527 1.82525 16.1727 -0.75966 10.2455 0.972066C5.05837 2.48766 1.6763 5.91261 0.446536 11.18C-0.770683 16.3935 0.744395 20.8777 4.57884 24.6331C5.47809 25.5138 6.3049 26.5807 6.81184 27.7191C7.32008 28.8602 7.48301 29.217 8.72094 28.9174C10.4402 28.5014 12.1364 27.9904 13.8554 27.5728C14.7366 27.3587 15.0714 26.8668 15.0655 25.9784C15.042 22.3931 15.0499 18.8075 15.063 15.2221C15.0658 14.4105 14.8107 13.7423 13.9375 13.722C13.0536 13.7015 12.7829 14.3474 12.7903 15.1748C12.8108 17.4993 12.7965 19.824 12.7964 22.1486C12.7963 25.8882 12.7964 25.8882 9.11935 26.4255C7.72149 24.8238 6.44858 23.384 5.19604 21.9265C0.700653 16.6959 1.52273 8.96357 7.13333 4.95879C11.1641 2.08152 15.4942 1.92142 19.8113 4.35078C23.8197 6.60664 26.0005 11.2541 25.4225 15.75C25.0364 18.7533 23.6022 21.1507 21.4751 23.2116C20.1914 24.4553 19.0216 25.7944 18.6005 27.5928C18.4035 28.434 17.9319 28.8512 17.117 29.0521C17.2693 28.9105 8.33405 31.4141 8.33405 31.4141C7.76875 31.5656 7.43025 32.152 7.58175 32.7172L7.60504 32.8046C7.75655 33.3698 8.3429 33.7084 8.9082 33.557C8.9082 33.557 19.1605 30.802 19.2949 30.7639C20.2444 30.5018 20.7611 29.8259 20.7828 28.8612C20.8151 27.421 21.4409 26.3 22.4593 25.3431C23.0044 24.8307 23.5472 24.3138 24.0603 23.7699C28.2949 19.2786 28.9938 12.4639 25.7739 7.14547Z" fill="#EE9143"/>
</svg>
