<svg width="42" height="42" viewBox="0 0 42 42" fill="none" xmlns="http://www.w3.org/2000/svg">
<path d="M36.4265 32.1228C34.7581 32.957 32.5336 32.4008 31.4213 30.7324L28.3626 26.8395H13.347L10.2883 30.7324C8.89792 32.6789 6.39532 32.957 4.44885 31.5666C3.05852 30.4544 2.50239 28.786 2.78045 27.3956L4.72692 17.1072C5.28305 13.7704 8.34179 11.2678 11.6786 11.2678H19.4645V7.09678C19.4645 4.87225 21.1329 2.92578 23.3574 2.92578H31.9775C32.8117 2.92578 33.3678 3.48191 33.3678 4.31611C33.3678 5.15031 32.8117 5.70645 31.9775 5.70645H23.6355C22.8013 5.70645 22.2451 6.26258 22.2451 6.81871V11.2678H30.031C33.3678 11.2678 36.4265 13.7704 36.9827 17.1072L38.9291 27.3956C39.2072 29.3421 38.373 31.2886 36.4265 32.1228ZM16.6838 18.2194C16.6838 15.9949 14.7373 14.0484 12.5128 14.0484C10.2883 14.0484 8.34179 15.9949 8.34179 18.2194C8.34179 20.444 10.2883 22.3904 12.5128 22.3904C14.7373 22.3904 16.6838 20.444 16.6838 18.2194ZM33.3678 18.2194C33.3678 17.3852 32.8117 16.8291 31.9775 16.8291H30.5871V15.4388C30.5871 14.6046 30.031 14.0484 29.1968 14.0484C28.3626 14.0484 27.8065 14.6046 27.8065 15.4388V16.8291H26.4161C25.5819 16.8291 25.0258 17.3852 25.0258 18.2194C25.0258 19.0536 25.5819 19.6098 26.4161 19.6098H27.8065V21.0001C27.8065 21.8343 28.3626 22.3904 29.1968 22.3904C30.031 22.3904 30.5871 21.8343 30.5871 21.0001V19.6098H31.9775C32.8117 19.6098 33.3678 19.0536 33.3678 18.2194Z" fill="#EE9143"/>
</svg>
