<svg width="43" height="42" viewBox="0 0 43 42" fill="none" xmlns="http://www.w3.org/2000/svg">
<path d="M19.2493 26.2139C19.2493 26.6755 19.0864 27.0692 18.7605 27.3951L14.8298 31.3258C14.504 31.6516 14.1034 31.8146 13.6282 31.8146C13.153 31.8146 12.7525 31.6584 12.4266 31.3461C12.1007 31.0339 11.9378 30.6333 11.9378 30.1445C11.9378 29.6693 12.1007 29.2688 12.4266 28.9429L16.3573 25.0123C16.6831 24.6864 17.0837 24.5235 17.5589 24.5235C18.0341 24.5235 18.4346 24.6864 18.7605 25.0123C19.0864 25.3381 19.2493 25.7386 19.2493 26.2139ZM15.0742 24.0958C15.0742 24.571 14.9113 24.9715 14.5854 25.2974L11.6731 28.1894C11.3472 28.5152 10.9535 28.6782 10.4918 28.6782C10.0166 28.6782 9.61607 28.522 9.29021 28.2097C8.96435 27.8975 8.80142 27.4969 8.80142 27.0081C8.80142 26.5329 8.96435 26.1324 9.29021 25.8065L12.1822 22.8942C12.3316 22.7448 12.5149 22.6294 12.7321 22.5479C12.9493 22.4665 13.1666 22.419 13.3838 22.4054C13.859 22.4054 14.2596 22.5683 14.5854 22.8942C14.9113 23.22 15.0742 23.6206 15.0742 24.0958ZM22.1006 29.6557C22.1006 30.1038 21.9308 30.4975 21.5914 30.837L17.9662 34.4622C17.6404 34.788 17.2398 34.951 16.7646 34.951C16.2894 34.951 15.8889 34.7948 15.563 34.4825C15.2371 34.1703 15.0742 33.7697 15.0742 33.2809C15.0742 32.8057 15.2371 32.4052 15.563 32.0793L19.2086 28.4541C19.548 28.1147 19.9417 27.945 20.3898 27.945C20.8514 27.945 21.252 28.1079 21.5914 28.4338C21.9308 28.7596 22.1006 29.167 22.1006 29.6557ZM19.901 38.1077C19.4258 38.1077 19.0253 37.9448 18.6994 37.6189C18.3735 37.2931 18.2106 36.8925 18.2106 36.4173C18.2106 35.9421 18.3735 35.5416 18.6994 35.2157L21.4488 32.4867C21.7883 32.1472 22.1888 31.9775 22.6504 31.9775C23.1257 31.9775 23.5262 32.1472 23.8521 32.4867C24.1779 32.8261 24.3408 33.2334 24.3408 33.7086C24.3408 33.9259 24.2933 34.1363 24.1983 34.34C24.1032 34.5436 23.981 34.7201 23.8317 34.8695L21.1026 37.6189C20.7768 37.9448 20.3762 38.1077 19.901 38.1077ZM39.5137 14.6255C39.5137 15.8203 39.3575 16.8658 39.0452 17.7619C38.733 18.658 38.3121 19.493 37.7825 20.2669C37.253 21.0408 36.642 21.774 35.9496 22.4665C35.2571 23.1589 34.5239 23.9057 33.75 24.7068L21.734 12.6296L15.6852 18.6376C15.2779 19.0178 14.8027 19.2079 14.2596 19.2079C13.7029 19.2079 13.2345 19.0178 12.8543 18.6376C12.4741 18.2575 12.2773 17.7822 12.2637 17.212C12.2637 16.6553 12.4606 16.1801 12.8543 15.7864L21.571 7.11035C22.5758 6.1192 23.7163 5.36565 24.9926 4.8497C26.2688 4.33376 27.613 4.069 29.0251 4.05542C30.4779 4.05542 31.8424 4.33376 33.1187 4.89043C34.395 5.44711 35.5015 6.20745 36.4384 7.17145C37.3752 8.13545 38.122 9.25559 38.6787 10.5319C39.2353 11.8082 39.5137 13.1727 39.5137 14.6255ZM33.9741 26.9267C33.9741 27.4019 33.8111 27.8024 33.4853 28.1283C33.1594 28.4541 32.7589 28.6171 32.2837 28.6171C31.822 28.6171 31.4283 28.4541 31.1024 28.1283L24.85 21.8555C24.755 21.7604 24.626 21.7129 24.463 21.7129C24.3137 21.7129 24.1847 21.7604 24.0761 21.8555C23.9675 21.9505 23.9132 22.0795 23.9132 22.2424C23.9132 22.3782 23.9675 22.5004 24.0761 22.609L30.9191 29.4521C31.2586 29.7915 31.4283 30.1921 31.4283 30.6537C31.4283 31.1289 31.2654 31.5294 30.9395 31.8553C30.6136 32.1812 30.2063 32.3441 29.7175 32.3441C29.2559 32.3441 28.8621 32.1812 28.5363 31.8553L21.6932 25.0123C21.5982 24.9172 21.4692 24.8697 21.3063 24.8697C21.1569 24.8697 21.0347 24.9172 20.9397 25.0123C20.8446 25.1073 20.7903 25.2363 20.7768 25.3992C20.7768 25.535 20.8311 25.6572 20.9397 25.7658L27.7827 32.6088C28.1086 32.9347 28.2715 33.3352 28.2715 33.8105C28.2715 34.2857 28.1086 34.6862 27.7827 35.0121C27.4569 35.3379 27.0563 35.5008 26.5811 35.5008C26.2281 35.5008 25.943 35.4262 25.7257 35.2768C25.5085 35.1275 25.2845 34.9238 25.0537 34.6658C25.1894 34.3807 25.2573 34.0481 25.2573 33.6679C25.2573 33.3013 25.1894 32.9619 25.0537 32.6496C24.9179 32.3373 24.7278 32.059 24.4834 31.8146C24.239 31.5702 23.9539 31.3869 23.628 31.2647C23.3022 31.1425 22.9559 31.0746 22.5893 31.061C22.8609 30.6401 22.9967 30.1717 22.9967 29.6557C22.9967 29.2892 22.9288 28.9497 22.793 28.6374C22.6572 28.3252 22.4739 28.0468 22.2431 27.8024C22.0123 27.558 21.734 27.3679 21.4081 27.2322C21.0822 27.0964 20.7496 27.0285 20.4102 27.0285H20.2269C20.1726 27.0285 20.1047 27.0421 20.0232 27.0692C20.0639 26.9199 20.0979 26.7773 20.125 26.6415C20.1522 26.5058 20.1658 26.3564 20.1658 26.1935C20.1658 25.8405 20.0979 25.5078 19.9621 25.1955C19.8263 24.8833 19.643 24.6049 19.4122 24.3605C19.1814 24.1161 18.9031 23.9261 18.5772 23.7903C18.2513 23.6545 17.9119 23.5866 17.5589 23.5866C17.2738 23.5866 17.0022 23.6341 16.7442 23.7292C16.4863 23.8242 16.2351 23.9532 15.9907 24.1161C15.9907 23.7495 15.9228 23.4101 15.787 23.0978C15.6513 22.7855 15.468 22.5072 15.2371 22.2628C15.0063 22.0184 14.7348 21.8283 14.4225 21.6926C14.1102 21.5568 13.764 21.4889 13.3838 21.4889C13.0444 21.4889 12.7117 21.55 12.3859 21.6722C12.06 21.7944 11.7749 21.9845 11.5305 22.2424L8.94398 24.8493C8.12934 24.0211 7.36221 23.254 6.6426 22.5479C5.923 21.8419 5.29843 21.0951 4.76891 20.3077C4.23939 19.5202 3.8117 18.6648 3.48584 17.7415C3.15998 16.8182 3.00384 15.732 3.01742 14.4829C3.01742 13.0437 3.29575 11.6927 3.85243 10.43C4.40911 9.16734 5.16945 8.06756 6.13345 7.13072C7.09745 6.19387 8.21759 5.44711 9.49387 4.89043C10.7702 4.33376 12.1211 4.05542 13.5467 4.05542C14.8638 4.05542 16.1265 4.28624 17.3349 4.74787C18.5433 5.20951 19.6362 5.88838 20.6138 6.78449L12.2026 15.1346C11.931 15.4062 11.7206 15.7185 11.5712 16.0715C11.4219 16.4245 11.3404 16.8047 11.3268 17.212C11.3268 17.6193 11.4015 17.9995 11.5509 18.3525C11.7002 18.7055 11.9107 19.011 12.1822 19.269C12.4538 19.527 12.766 19.7374 13.1191 19.9003C13.4721 20.0633 13.8522 20.1447 14.2596 20.1447C14.6533 20.1447 15.0267 20.07 15.3797 19.9207C15.7327 19.7713 16.0518 19.5609 16.3369 19.2893L21.734 13.9127L33.4853 25.7251C33.8111 26.0509 33.9741 26.4515 33.9741 26.9267ZM22.1006 37.9041L24.3612 35.6434C24.4698 35.8878 24.5241 36.1322 24.5241 36.3766C24.5241 36.8518 24.3612 37.2523 24.0353 37.5782C23.7095 37.9041 23.309 38.067 22.8337 38.067C22.5893 38.067 22.345 38.0127 22.1006 37.9041Z" fill="#EE9143"/>
</svg>
