<svg width="44" height="45" viewBox="0 0 44 45" fill="none" xmlns="http://www.w3.org/2000/svg">
<path d="M15.8067 40.4095C15.965 40.5811 16.0491 40.8083 16.0409 41.0416C16.0327 41.2749 15.9327 41.4956 15.7627 41.6556L13.8513 43.4429C13.6806 43.6014 13.454 43.6858 13.2212 43.6774C12.9884 43.6689 12.7684 43.5685 12.6096 43.398L1.47851 31.4018C1.32033 31.2301 1.23631 31.0029 1.24472 30.7696C1.25312 30.5362 1.35326 30.3157 1.52339 30.1558L3.43739 28.3711C3.52185 28.2925 3.62097 28.2313 3.72909 28.191C3.83721 28.1507 3.95222 28.1321 4.06753 28.1363C4.18284 28.1404 4.2962 28.1673 4.40113 28.2153C4.50607 28.2633 4.60051 28.3315 4.67907 28.416L15.8067 40.4095ZM30.0099 17.8375C30.168 18.0092 30.2521 18.2365 30.2437 18.4698C30.2353 18.7031 30.1351 18.9237 29.965 19.0836L17.9354 30.3212C17.7647 30.4798 17.5381 30.5641 17.3053 30.5557C17.0724 30.5473 16.8525 30.4468 16.6937 30.2763L13.8223 27.1778C13.6641 27.0061 13.5801 26.7789 13.5885 26.5456C13.5969 26.3122 13.697 26.0917 13.8671 25.9318L25.8941 14.6942C25.9785 14.6156 26.0775 14.5544 26.1856 14.5141C26.2936 14.4738 26.4086 14.4552 26.5238 14.4594C26.6391 14.4635 26.7523 14.4904 26.8572 14.5384C26.9621 14.5864 27.0564 14.6545 27.1349 14.739L30.0099 17.8375ZM19.8995 36.5842C20.2287 36.9388 20.2084 37.4994 19.8547 37.8302L17.9407 39.6166C17.8562 39.6953 17.7571 39.7565 17.649 39.7968C17.5408 39.8371 17.4258 39.8557 17.3105 39.8515C17.1952 39.8473 17.0819 39.8205 16.9769 39.7725C16.872 39.7245 16.7775 39.6563 16.699 39.5718L5.57403 27.5756C5.41574 27.404 5.33157 27.1768 5.3398 26.9435C5.34804 26.7102 5.44803 26.4895 5.61803 26.3295L7.52851 24.544C7.69918 24.3854 7.92582 24.3011 8.15864 24.3095C8.39145 24.3179 8.61141 24.4184 8.77019 24.5889L19.8995 36.5842ZM38.435 18.2678C38.5931 18.4397 38.6769 18.667 38.6683 18.9003C38.6598 19.1336 38.5595 19.3541 38.3892 19.5139L36.4761 21.3003C36.3054 21.459 36.0787 21.5436 35.8457 21.5353C35.6128 21.5271 35.3926 21.4267 35.2335 21.2563L24.1068 9.26279C23.9483 9.09128 23.864 8.86409 23.8722 8.63069C23.8805 8.3973 23.9806 8.17662 24.1508 8.01672L26.0692 6.22591C26.1536 6.14732 26.2527 6.08613 26.3607 6.04584C26.4688 6.00555 26.5837 5.98696 26.6989 5.99113C26.8142 5.9953 26.9275 6.02215 27.0323 6.07013C27.1372 6.11812 27.2315 6.18631 27.31 6.2708L38.435 18.2678ZM42.5217 14.4486C42.6797 14.6206 42.7636 14.8479 42.7552 15.0813C42.7468 15.3147 42.6468 15.5354 42.4768 15.6956L40.5672 17.4811C40.4829 17.5598 40.3839 17.621 40.2759 17.6614C40.1679 17.7017 40.0529 17.7204 39.9377 17.7163C39.8225 17.7122 39.7092 17.6855 39.6043 17.6376C39.4994 17.5897 39.405 17.5215 39.3264 17.4371L28.2015 5.43832C28.0433 5.26645 27.9593 5.0392 27.9675 4.8058C27.9758 4.57241 28.0756 4.35165 28.2455 4.19136L30.1568 2.40232C30.241 2.32358 30.3399 2.26225 30.4479 2.22184C30.5558 2.18142 30.6707 2.16272 30.7859 2.16681C30.9011 2.1709 31.0144 2.19769 31.1192 2.24566C31.224 2.29362 31.3183 2.36181 31.3967 2.44632L42.5217 14.4486Z" fill="#fff"/>
</svg>
